<svg xmlns="http://www.w3.org/2000/svg"
    xmlns:xlink="http://www.w3.org/1999/xlink"
    width="1080"
    zoomAndPan="magnify"
    viewBox="0 0 810 809.999993"
    height="1080"
    preserveAspectRatio="xMidYMid meet"
    version="1.0">
    <defs>
        <clipPath id="c684e12564">
            <path
                d="M 0.777344 268 L 570 268 L 570 807.28125 L 0.777344 807.28125 Z M 0.777344 268 "
                clip-rule="nonzero" />
        </clipPath>
        <clipPath id="92064c49b2">
            <path
                d="M 289 2.53125 L 809.3125 2.53125 L 809.3125 495.90625 L 289 495.90625 Z M 289 2.53125 "
                clip-rule="nonzero" />
        </clipPath>
    </defs>
    <path
        fill="#212121"
        d="M 82.9375 382.265625 C 75.964844 382.265625 70.3125 387.929688 70.3125 394.902344 C 70.3125 401.875 75.964844 407.527344 82.9375 407.527344 L 411.640625 407.527344 C 418.617188 407.527344 424.269531 401.875 424.269531 394.902344 C 424.269531 387.929688 418.617188 382.265625 411.640625 382.265625 L 82.9375 382.265625 "
        fill-opacity="1"
        fill-rule="nonzero" />
    <path
        fill="#212121"
        d="M 82.9375 470.742188 C 75.964844 470.742188 70.3125 476.394531 70.3125 483.375 C 70.3125 490.347656 75.964844 496 82.9375 496 L 487.488281 496 C 494.472656 496 500.128906 490.347656 500.128906 483.375 C 500.128906 476.394531 494.472656 470.742188 487.488281 470.742188 L 82.9375 470.742188 "
        fill-opacity="1"
        fill-rule="nonzero" />
    <path
        fill="#212121"
        d="M 82.9375 559.214844 C 75.964844 559.214844 70.3125 564.867188 70.3125 571.847656 C 70.3125 578.820312 75.964844 584.472656 82.9375 584.472656 L 487.488281 584.472656 C 494.472656 584.472656 500.128906 578.820312 500.128906 571.847656 C 500.128906 564.867188 494.472656 559.214844 487.488281 559.214844 L 82.9375 559.214844 "
        fill-opacity="1"
        fill-rule="nonzero" />
    <g clip-path="url(#c684e12564)">
        <path
            fill="#212121"
            d="M 199.800781 672.972656 L 483.582031 672.972656 C 500.289062 672.972656 515.488281 666.128906 526.515625 655.097656 C 537.542969 644.074219 544.386719 628.878906 544.386719 612.175781 L 544.386719 354.574219 C 544.386719 337.863281 537.542969 322.667969 526.515625 311.644531 C 515.488281 300.621094 500.289062 293.777344 483.582031 293.777344 L 86.855469 293.777344 C 70.148438 293.777344 54.941406 300.621094 43.914062 311.644531 C 32.886719 322.667969 26.042969 337.863281 26.042969 354.574219 L 26.042969 612.175781 C 26.042969 628.878906 32.886719 644.074219 43.914062 655.097656 C 54.941406 666.128906 70.148438 672.972656 86.855469 672.972656 L 124.097656 672.972656 L 124.234375 672.980469 L 124.398438 672.980469 L 124.621094 673 L 124.707031 673 L 124.953125 673.023438 L 125.007812 673.023438 L 125.273438 673.058594 L 125.304688 673.058594 L 125.589844 673.101562 L 125.597656 673.101562 C 126.09375 673.171875 126.589844 673.273438 127.078125 673.402344 L 127.097656 673.410156 C 127.277344 673.460938 127.457031 673.511719 127.644531 673.574219 L 127.703125 673.589844 L 127.9375 673.667969 L 127.996094 673.691406 L 128.203125 673.761719 L 128.332031 673.8125 L 128.484375 673.871094 L 128.613281 673.925781 L 128.742188 673.984375 L 128.929688 674.0625 L 129.015625 674.105469 L 129.222656 674.199219 L 129.28125 674.222656 L 129.511719 674.34375 L 129.546875 674.359375 C 129.71875 674.445312 129.890625 674.539062 130.0625 674.636719 L 130.078125 674.652344 C 130.25 674.746094 130.421875 674.847656 130.582031 674.953125 L 130.601562 674.960938 L 130.832031 675.113281 L 130.867188 675.140625 L 131.082031 675.285156 L 131.132812 675.328125 L 131.3125 675.457031 L 131.390625 675.515625 L 131.570312 675.65625 L 131.613281 675.6875 L 131.808594 675.84375 L 131.851562 675.878906 L 132.03125 676.039062 L 132.132812 676.125 L 132.261719 676.238281 C 132.417969 676.375 132.5625 676.519531 132.707031 676.664062 L 132.714844 676.664062 C 135.003906 678.953125 136.417969 682.113281 136.417969 685.597656 C 136.417969 685.917969 136.402344 686.222656 136.382812 686.542969 L 137.324219 754.671875 L 189.210938 678.507812 L 189.183594 678.488281 C 191.660156 674.847656 195.707031 672.914062 199.800781 672.972656 Z M 483.582031 698.234375 L 206.277344 698.234375 L 136.195312 801.105469 C 134.035156 804.789062 130.0625 807.28125 125.476562 807.339844 C 118.503906 807.445312 112.761719 801.867188 112.667969 794.894531 L 125.296875 794.714844 L 112.710938 794.859375 L 111.367188 698.234375 L 86.855469 698.234375 C 63.164062 698.234375 41.644531 688.554688 26.050781 672.964844 C 10.457031 657.367188 0.777344 635.851562 0.777344 612.175781 L 0.777344 354.574219 C 0.777344 330.890625 10.457031 309.375 26.050781 293.785156 C 41.644531 278.195312 63.164062 268.515625 86.855469 268.515625 L 483.582031 268.515625 C 507.265625 268.515625 528.785156 278.195312 544.378906 293.785156 C 559.980469 309.375 569.652344 330.890625 569.652344 354.574219 L 569.652344 612.175781 C 569.652344 635.851562 559.980469 657.367188 544.378906 672.964844 C 528.785156 688.554688 507.265625 698.234375 483.582031 698.234375 "
            fill-opacity="1"
            fill-rule="nonzero" />
    </g>
    <path
        fill="#212121"
        d="M 733.371094 131.355469 C 740.351562 131.355469 746.007812 125.703125 746.007812 118.730469 C 746.007812 111.757812 740.351562 106.097656 733.371094 106.097656 L 434.105469 106.097656 C 427.132812 106.097656 421.476562 111.757812 421.476562 118.730469 C 421.476562 125.703125 427.132812 131.355469 434.105469 131.355469 L 733.371094 131.355469 "
        fill-opacity="1"
        fill-rule="nonzero" />
    <path
        fill="#212121"
        d="M 733.371094 211.914062 C 740.351562 211.914062 746.007812 206.253906 746.007812 199.28125 C 746.007812 192.308594 740.351562 186.648438 733.371094 186.648438 L 365.050781 186.648438 C 358.070312 186.648438 352.414062 192.308594 352.414062 199.28125 C 352.414062 206.253906 358.070312 211.914062 365.050781 211.914062 L 733.371094 211.914062 "
        fill-opacity="1"
        fill-rule="nonzero" />
    <path
        fill="#212121"
        d="M 733.371094 292.464844 C 740.351562 292.464844 746.007812 286.8125 746.007812 279.832031 C 746.007812 272.859375 740.351562 267.199219 733.371094 267.199219 L 529.375 267.199219 C 538.105469 271.796875 546.1875 277.726562 553.3125 284.851562 C 555.746094 287.285156 558.035156 289.828125 560.183594 292.464844 L 733.371094 292.464844 "
        fill-opacity="1"
        fill-rule="nonzero" />
    <g clip-path="url(#92064c49b2)">
        <path
            fill="#212121"
            d="M 314.375 255.882812 L 314.375 82.011719 C 314.375 67.117188 320.484375 53.566406 330.308594 43.730469 C 340.144531 33.898438 353.707031 27.792969 368.605469 27.792969 L 729.8125 27.792969 C 744.714844 27.792969 758.265625 33.898438 768.101562 43.730469 C 777.9375 53.566406 784.046875 67.117188 784.046875 82.011719 L 784.046875 316.550781 C 784.046875 331.449219 777.9375 345 768.101562 354.832031 C 758.265625 364.664062 744.714844 370.773438 729.8125 370.773438 L 695.878906 370.773438 L 695.734375 370.78125 L 695.578125 370.789062 L 695.355469 370.796875 L 695.269531 370.808594 L 695.019531 370.824219 L 694.96875 370.832031 L 694.703125 370.859375 L 694.671875 370.867188 L 694.378906 370.902344 C 693.875 370.976562 693.375 371.074219 692.898438 371.210938 L 692.878906 371.210938 C 692.691406 371.261719 692.511719 371.3125 692.332031 371.371094 L 692.261719 371.398438 L 692.039062 371.464844 L 691.980469 371.492188 L 691.773438 371.570312 L 691.644531 371.613281 L 691.492188 371.679688 L 691.363281 371.722656 L 691.226562 371.785156 L 691.046875 371.859375 L 690.953125 371.902344 L 690.746094 371.996094 L 690.6875 372.03125 L 690.429688 372.160156 C 690.257812 372.246094 690.085938 372.339844 689.914062 372.433594 L 689.890625 372.453125 C 689.71875 372.546875 689.554688 372.648438 689.394531 372.757812 L 689.375 372.769531 L 689.144531 372.914062 L 689.109375 372.941406 L 688.894531 373.09375 L 688.84375 373.128906 L 688.664062 373.257812 L 688.578125 373.316406 L 688.40625 373.453125 L 688.355469 373.488281 L 688.167969 373.652344 L 688.125 373.683594 L 687.9375 373.839844 L 687.84375 373.925781 L 687.714844 374.035156 C 687.558594 374.171875 687.414062 374.320312 687.257812 374.464844 L 687.257812 374.472656 C 684.972656 376.75 683.558594 379.910156 683.558594 383.398438 C 683.558594 383.714844 683.566406 384.03125 683.59375 384.339844 L 682.777344 442.699219 L 637.550781 376.304688 L 637.574219 376.289062 C 635.101562 372.65625 631.054688 370.722656 626.960938 370.773438 L 582.289062 370.773438 L 582.289062 396.03125 L 620.484375 396.03125 L 683.910156 489.140625 C 686.078125 492.8125 690.050781 495.316406 694.636719 495.375 C 701.609375 495.46875 707.339844 489.894531 707.4375 482.921875 L 694.808594 482.75 L 707.394531 482.894531 L 708.601562 396.03125 L 729.8125 396.03125 C 751.6875 396.03125 771.5625 387.089844 785.964844 372.691406 C 800.367188 358.292969 809.3125 338.421875 809.3125 316.550781 L 809.3125 82.011719 C 809.3125 60.144531 800.367188 40.269531 785.964844 25.871094 C 771.5625 11.464844 751.6875 2.53125 729.8125 2.53125 L 368.605469 2.53125 C 346.734375 2.53125 326.855469 11.464844 312.457031 25.871094 C 298.042969 40.269531 289.109375 60.144531 289.109375 82.011719 L 289.109375 255.882812 L 314.375 255.882812 "
            fill-opacity="1"
            fill-rule="nonzero" />
    </g>
</svg>