<svg xmlns="http://www.w3.org/2000/svg"
    data-name="Layer 1"
    viewBox="0 0 512 512">
    <path
        fill="#18171c"
        d="M204.71,256A51.29,51.29,0,1,0,256,204.71,51.35,51.35,0,0,0,204.71,256Zm87.58,0A36.29,36.29,0,1,1,256,219.71,36.33,36.33,0,0,1,292.29,256ZM38.5,475.5h44A7.5,7.5,0,0,0,90,468V424a7.5,7.5,0,0,0-7.5-7.5h-44A7.5,7.5,0,0,0,31,424v44A7.5,7.5,0,0,0,38.5,475.5Zm7.5-44H75v29H46Zm381.5,44h44A7.5,7.5,0,0,0,479,468V424a7.5,7.5,0,0,0-7.5-7.5h-44A7.5,7.5,0,0,0,420,424v44A7.5,7.5,0,0,0,427.5,475.5Zm7.5-44h29v29H435Zm77-128.6a.76.76,0,0,0,0-.15,7,7,0,0,0-.12-.8v0l-30-140A7.49,7.49,0,0,0,474.5,156H310.64a4.93,4.93,0,0,0-.55,0l-6.56-4V99.75a6.68,6.68,0,0,0,0-.78s0-.06,0-.09c0-.23-.06-.46-.11-.68l0-.11c0-.21-.1-.43-.17-.64a1.21,1.21,0,0,0-.05-.14c-.07-.19-.14-.38-.22-.56l-.09-.2-.24-.47-.14-.23-.26-.4a2.35,2.35,0,0,0-.19-.25c-.08-.12-.18-.23-.27-.34s-.15-.16-.22-.24-.2-.21-.31-.31a1.36,1.36,0,0,0-.12-.12L263.5,60.24V51H304a7.5,7.5,0,0,0,7.5-7.5V7.5A7.5,7.5,0,0,0,304,0H256a7.5,7.5,0,0,0-7.5,7.5V60.24L210.94,94.19l-.12.12-.31.31c-.07.08-.15.15-.22.24s-.19.22-.27.34a2.35,2.35,0,0,0-.19.25l-.26.4-.14.23-.24.47-.09.2c-.08.18-.15.37-.22.56s0,.1,0,.14c-.07.21-.12.43-.17.64l0,.11c0,.22-.08.45-.11.68,0,0,0,.06,0,.09a6.68,6.68,0,0,0,0,.78v52.31L202,156H37.5a7.49,7.49,0,0,0-7.33,5.93l-30,140v0c0,.15,0,.31-.07.47s0,.2,0,.29a1.77,1.77,0,0,0,0,.23,5.07,5.07,0,0,0,0,.55H0v201A7.5,7.5,0,0,0,7.5,512h497a7.5,7.5,0,0,0,7.5-7.5v-201Q512,303.2,512,302.9ZM263.5,15h33V36h-33ZM468.44,171l26.78,125H403V270.17l23.07,14.08a7.49,7.49,0,0,0,11.41-6.35l.28-39.68v-.05a7.5,7.5,0,0,0-3.6-6.4L334.62,171ZM256,73.68l20.55,18.57h-41.1Zm-32.53,33.57h65.06v35.62L275.63,135l-15.69-9.58a7.48,7.48,0,0,0-7.82,0l-28.65,17.49ZM256,140.6,422.76,242.36l-.16,22.18L259.94,165.26a7.51,7.51,0,0,0-7.81,0L89.46,264.54l-.15-22.18ZM109,497H15V311h94Zm0-201H16.78L43.56,171H177.44L77.81,231.81a7.52,7.52,0,0,0-3.53,7.44l.27,38.65a7.49,7.49,0,0,0,7.5,7.45,7.42,7.42,0,0,0,3.91-1.1l23-14Zm33,201H124V261.05l18-11Zm151,0H219V381.72a37,37,0,0,1,74,0Zm62,0H308V381.72a52,52,0,0,0-104,0V497H157V240.91L256,180.45l99,60.42Zm33,0H370V250l18,11Zm109,0H403V311h94ZM38.5,394.5h44A7.5,7.5,0,0,0,90,387V343a7.5,7.5,0,0,0-7.5-7.5h-44A7.5,7.5,0,0,0,31,343v44A7.5,7.5,0,0,0,38.5,394.5Zm7.5-44H75v29H46ZM248.8,243.86a7.5,7.5,0,1,0-6.86,13.34l10.58,5.44,0,0h0l.16.07c.21.1.43.21.65.29s.46.15.69.21l.16.05a7.56,7.56,0,0,0,1.76.21h.1c.32,0,.64,0,1-.07l.45-.1c.19,0,.39-.07.58-.12l.45-.16.55-.22.4-.2a6.65,6.65,0,0,0,.58-.33l.15-.09,15.94-10.78a7.5,7.5,0,1,0-8.4-12.42l-12.26,8.29ZM427.5,394.5h44A7.5,7.5,0,0,0,479,387V343a7.5,7.5,0,0,0-7.5-7.5h-44A7.5,7.5,0,0,0,420,343v44A7.5,7.5,0,0,0,427.5,394.5Zm7.5-44h29v29H435Z" />
</svg>