<?xml version="1.0" encoding="UTF-8"?>
<svg id="Phrase_house" data-name="Phrase house" xmlns="http://www.w3.org/2000/svg" viewBox="0 0 1000 1000">
  <defs>
    <style>
      .cls-1 {
        fill: #262626;
      }

      .cls-2 {
        fill: #e0e0e0;
      }

      .cls-2, .cls-3, .cls-4, .cls-5, .cls-6, .cls-7, .cls-8, .cls-9, .cls-10, .cls-11, .cls-12, .cls-13, .cls-14, .cls-15, .cls-16 {
        stroke-width: 8px;
      }

      .cls-2, .cls-3, .cls-4, .cls-5, .cls-6, .cls-7, .cls-8, .cls-9, .cls-10, .cls-12, .cls-13, .cls-16 {
        stroke-linecap: round;
        stroke-linejoin: round;
      }

      .cls-2, .cls-4, .cls-5, .cls-6, .cls-7, .cls-8, .cls-9, .cls-10, .cls-12, .cls-13, .cls-15, .cls-16 {
        stroke: #678c90;
      }

      .cls-17, .cls-5 {
        fill: #fff;
      }

      .cls-3, .cls-11, .cls-14 {
        stroke: #4d7175;
      }

      .cls-3, .cls-13, .cls-14 {
        fill: none;
      }

      .cls-4, .cls-15 {
        fill: #a9d8ca;
      }

      .cls-6, .cls-18 {
        fill: #678c90;
      }

      .cls-7 {
        fill: #9fc9bd;
      }

      .cls-8, .cls-11 {
        fill: #f3efd9;
      }

      .cls-9 {
        fill: #698f91;
      }

      .cls-10, .cls-19 {
        fill: #7ea89c;
      }

      .cls-20 {
        fill: #ffe875;
      }

      .cls-11, .cls-14, .cls-15 {
        stroke-miterlimit: 10;
      }

      .cls-12 {
        fill: #dbdbdb;
      }

      .cls-21 {
        fill: #404040;
      }

      .cls-22 {
        fill: #c5e2e8;
      }

      .cls-16 {
        fill: #bfbfbf;
      }
    </style>
  </defs>
  <g id="Bg_copy_2" data-name="Bg copy 2">
    <path class="cls-22" d="M952.7,579.3c23.88-62.76,20.72-135.02-8.54-195.53-29.26-60.5-84.23-108.44-148.74-129.69-63.17-20.81-151.57-.33-206.97-36.75-55.81-36.7-88.58-81.56-153.58-97.3-62.91-15.23-122.82-18.16-173.67,24.68-50.85,42.84-90.98,76.62-112.7,138.98-21.72,62.35-12.44,103.69-42.11,162.78-26.26,52.31-64.26,102.5-65.6,160.84-1.53,66.79,45.23,124.06,89.45,174.7,33.93,38.86,55.73,66.13,107.75,65.94,43.07-.16,98.53-14.85,138.93-29.56,115.49-42.03,233.97,23.37,356.72,14,67.04-5.11,137.98-22.1,178.92-74.66,40.94-52.56,57.97-122.55,45.65-187.69"/>
  </g>
  <g id="Clouds_copy_2" data-name="Clouds copy 2">
    <path class="cls-17" d="M950.6,321.62c12.33-29.17-1.01-67.93-27.92-81.12-26.91-13.2-62.46,1.6-74.39,30.96-18.01-19.39-43.71-40.28-66.11-27.38-9.33,5.38-15.3,15.55-21.99,24.43-32.98,43.79-94.25,23.58-152.05,58.87,0,0,238.61-3.97,342.46-5.76Z"/>
    <path class="cls-17" d="M171.76,203.31c-12.05-33.42,22.45-67.06,48.75-82.17,26.3-15.12,60.89-7.21,72.55,26.42,17.6-22.22,34.4-29.74,58.61-20.38,23.9,9.24,33.18,35.75,127.14,72.08-126.88,0-205.57,6.09-307.05,4.04Z"/>
  </g>
  <g id="Building_copy_2" data-name="Building copy 2">
    <g id="Back2_copy_2" data-name="Back2 copy 2">
      <g id="Back_two_walls_copy_2" data-name="Back two walls copy 2">
        <rect class="cls-8" x="33.75" y="481.94" width="939.13" height="268.58"/>
      </g>
      <g id="Windows_copy_2" data-name="Windows copy 2">
        <g id="Left_copy_2" data-name="Left copy 2">
          <path class="cls-12" d="M229.36,687.13l25.53-.28s5.83-45.14-12.27-45.14-13.26,45.42-13.26,45.42Z"/>
          <path class="cls-12" d="M175.56,687.13l25.53-.28s5.83-45.14-12.27-45.14-13.26,45.42-13.26,45.42Z"/>
          <path class="cls-12" d="M124.2,687.13l25.53-.28s5.83-45.14-12.27-45.14-13.26,45.42-13.26,45.42Z"/>
          <path class="cls-12" d="M74.9,687.13l25.53-.28s5.83-45.14-12.27-45.14-13.26,45.42-13.26,45.42Z"/>
          <rect class="cls-12" x="229.44" y="530.7" width="25.68" height="73.37"/>
          <rect class="cls-12" x="75.36" y="530.7" width="25.68" height="73.37"/>
          <rect class="cls-12" x="175.64" y="530.7" width="25.68" height="73.37"/>
          <rect class="cls-12" x="124.28" y="530.7" width="25.68" height="73.37"/>
          <path class="cls-12" d="M229.36,687.13l25.53-.28s5.83-45.14-12.27-45.14-13.26,45.42-13.26,45.42Z"/>
          <path class="cls-12" d="M175.56,687.13l25.53-.28s5.83-45.14-12.27-45.14-13.26,45.42-13.26,45.42Z"/>
          <path class="cls-12" d="M124.2,687.13l25.53-.28s5.83-45.14-12.27-45.14-13.26,45.42-13.26,45.42Z"/>
          <path class="cls-12" d="M74.9,687.13l25.53-.28s5.83-45.14-12.27-45.14-13.26,45.42-13.26,45.42Z"/>
          <rect class="cls-12" x="229.44" y="530.7" width="25.68" height="73.37"/>
          <rect class="cls-12" x="75.36" y="530.7" width="25.68" height="73.37"/>
          <rect class="cls-12" x="175.64" y="530.7" width="25.68" height="73.37"/>
          <rect class="cls-12" x="124.28" y="530.7" width="25.68" height="73.37"/>
        </g>
        <g id="Right_copy_2" data-name="Right copy 2">
          <path class="cls-12" d="M908.11,688.03l25.53-.28s5.83-45.14-12.27-45.14-13.26,45.42-13.26,45.42Z"/>
          <path class="cls-12" d="M854.3,688.03l25.53-.28s5.83-45.14-12.27-45.14-13.26,45.42-13.26,45.42Z"/>
          <path class="cls-12" d="M802.94,688.03l25.53-.28s5.83-45.14-12.27-45.14-13.26,45.42-13.26,45.42Z"/>
          <path class="cls-12" d="M753.64,688.03l25.53-.28s5.83-45.14-12.27-45.14-13.26,45.42-13.26,45.42Z"/>
          <rect class="cls-12" x="908.19" y="531.6" width="25.68" height="73.37"/>
          <rect class="cls-12" x="754.11" y="531.6" width="25.68" height="73.37"/>
          <rect class="cls-12" x="803.02" y="531.6" width="25.68" height="73.37"/>
          <rect class="cls-12" x="854.38" y="531.6" width="25.68" height="73.37"/>
        </g>
      </g>
    </g>
    <g id="Layer_16_copy_2" data-name="Layer 16 copy 2">
      <rect class="cls-11" x="296.48" y="418.82" width="405.98" height="313.99"/>
    </g>
    <g id="Layer_17_copy_2" data-name="Layer 17 copy 2">
      <path class="cls-21" d="M519.39,517.58c-1.14-4.22-4.09-7.93-7.92-10.04-8.76-4.33-17.47-1.9-20.85,7.68-2.34,5.5-1.4,12.47,2.74,16.87,.93,1.02,2.24,1.85,3.62,2.26,.85,1.07,1.85,2,2.98,2.7,5.32,3.15,12.15,.9,15.97-3.56,4.03-4.22,4.78-10.42,3.45-15.92Z"/>
      <path class="cls-21" d="M624.13,502.59c-1.67-1.12-4.16-1.15-5.7,.23-.63,.42-1.09,.99-1.4,1.63-2.73-.45-5.88,1.38-5.84,4.76-.35,9.09-.72,18.18-.41,27.28,.35,5.57-.46,11.6,2.42,16.64,2.34,4.13,7.69,5.16,10.96,1.47,4.61-5.7,4.8-13.58,5.52-20.58,.31-7.71,1.23-26.84-5.55-31.44Z"/>
      <path class="cls-21" d="M618.13,605.41c-.33,.2-.61,.42-.86,.65-2.85-1.7-7.4-.33-7.52,4.12,.2,14.13-.52,29.07,5.07,42.34,1.53,2.52,5.04,3.58,7.63,2.06,5.43-3.72,5.33-15.02,5.94-21.11,.26-6.17,.78-33.25-10.25-28.05Z"/>
      <path class="cls-21" d="M388.21,507.08c-.61-1.82-2.59-3.02-4.47-3.01-1.81,.08-2.96,.74-3.71,1.73-2.51-.83-5.7,.39-6.39,3.27-1.39,10.13-1.41,20.5,.11,30.62,.45,3.05,1.05,6.07,1.83,9.05,.43,1.31,.45,2.85,1.43,3.89,1.9,2.78,6.45,2.41,8.06-.5,1.11-1.96,.52-4.34,.83-6.49,.27-4.35,.5-8.7,.77-13.05,.32-5.57,.85-11.11,1.38-16.66,0-2.78,1.13-6.28,.14-8.85Z"/>
      <path class="cls-21" d="M388.21,611.05c-.61-1.82-2.59-3.02-4.47-3.01-1.81,.08-2.96,.74-3.71,1.73-2.51-.83-5.7,.39-6.39,3.27-1.39,10.13-1.41,20.5,.11,30.62,.45,3.05,1.05,6.07,1.83,9.05,.43,1.31,.45,2.85,1.43,3.89,1.9,2.78,6.45,2.41,8.06-.5,1.11-1.96,.52-4.34,.83-6.49,.27-4.35,.5-8.7,.77-13.05,.32-5.57,.85-11.11,1.38-16.66,0-2.78,1.13-6.28,.14-8.85Z"/>
      <path class="cls-21" d="M519.79,620.53c.67-4.16,.18-8.42-.03-12.6-.54-7.02-1.98-14.24-5.88-20.21-.44-.69-.94-1.28-1.49-1.8-.18-.42-.35-.85-.55-1.26-2.59-6.35-12.15-12.05-16.91-4.72-.18,.36-.33,.73-.46,1.1-1.09,.01-2.22,.35-3.37,1.11-2.58,.8-4.47,3.24-5.36,5.76-.43,1.95-.56,3.98-.46,5.97,.01,.1,.02,.21,.03,.31-.07,.38-.1,.78-.14,1.17-.38,.81-.73,1.63-1.06,2.46-9.38,23.17-3.67,48.67-2.61,72.81,.14,2.06,.3,4.11,.45,6.17-.34,5.82-.62,11.65-.81,17.48,.06,4.77-.76,9.82,.46,14.46,1.11,2.89,4.21,3.52,6.54,2.47,1.04,.66,2.35,.92,3.88,.52,.95-.23,1.69-.79,2.33-1.47,1.04,.14,2.1,.04,3.17-.39,2.37-.51,2.96-1.35,3.41-1.3,.1-.03,.21-.04,.31-.07,.55-.01,1.77-.11,2.38-.23,.76-.13,1.48-.4,2.2-.7,1.32,3.64,6.83,3.91,8.67,.53,1.26-2.99,.95-7.31,1.53-10.6,.37-3.58,.73-7.16,1.06-10.75,1.51-16.31,2.37-32.68,2.66-49.05,.09-5.47,.08-10.95-.21-16.41,.1-.24,.2-.48,.26-.74Z"/>
    </g>
    <g id="Layer_18_copy_2" data-name="Layer 18 copy 2">
      <path class="cls-1" d="M513.49,581.63c.03-.09,.08-.18,.1-.28,1.43-8.34-10.83-7.5-15.4-4.25-5.21,3.76-8.13,8.95-9.79,14.79-11.43,21.51-9.34,53.05-8.34,76.36,.73,15.72,1.08,31.46,1.67,47.18,.1,2.41,0,5.33,2.21,6.85,2.7,2.32,7.04,.61,7.85-2.71,1.67-11.3,1.35-22.79,1.72-34.18,.48-17.99,1.05-35.98,1.78-53.97,.3-7.7,.51-15.4,.83-23.1,.32-5.55,.48-9.34,1.37-12.83,2.33-4,5.01-6.62,7.8-7.37,.36-.13,.73-.22,1.1-.29,.13,0,.26-.01,.4-.01,1.1,.5,2.32,.71,3.51,.36,2.94-.7,4.16-4.03,3.21-6.57Z"/>
      <path class="cls-1" d="M518.9,503.95c-1.65-1.52-4.05-1.87-6.16-2.38-2.65-.5-5.35-.67-8.01-.18-7.68,1.24-13.44,7.92-15.99,14.95-2.06,6.68-1.83,14.24,.78,20.73,3.1,5.9,11.77,1.22,8.6-4.63-1.99-6.53-1.47-16.82,6.52-20.92,1.57-.55,3.45-1.35,8.64,.29,4.93,2.36,9.46-3.93,5.63-7.86Z"/>
      <path class="cls-1" d="M628.46,504.03c-1.31-1.37-3.28-1.52-5.05-1.75-3.35-.33-6.78,.85-9.21,3.17-3.31,3.18-4.02,7.92-4.57,12.28-.6,4.71-.81,9.47-.81,14.22,.23,7.02-.19,14.31,1.19,21.18,1.87,4.89,9.42,3.34,9.36-1.88-1.08-13.49-1.44-32.85,1.44-38.58,.11-.11,.2-.21,.29-.29,.13-.08,.26-.16,.4-.23,.14-.04,.3-.09,.48-.13,.12,0,.26,0,.44-.01,.19,.01,.33,.02,.45,.03,.92,.21,1.83,.53,2.77,.27,3.93-.26,5.63-5.61,2.81-8.26Z"/>
      <path class="cls-1" d="M631.45,607.42c-1.53-2.33-4.61-3.19-7.17-3.84-4.62-.91-9.87,.74-12.54,4.74-2.79,4.48-2.74,10.03-3.05,15.14-.13,8.11-.53,16.22-.29,24.33,.07,2.16,.17,4.33,.3,6.49,.03,1.62,.26,3.34,1.51,4.5,2.87,3.07,8.49,.76,8.35-3.46-.7-8.86-.42-17.75-.21-26.62,.19-7.45,.15-12.51,1.63-15.06,.15-.09,.3-.2,.46-.28,.29-.1,.59-.18,.89-.24,.12,0,.25,0,.41-.01,.15,0,.27,.01,.38,.02,.57,.12,1.14,.28,1.68,.5,.29,.14,.64,.32,.94,.5,1.12,.66,2.51,.84,3.77,.49,3.03-.76,4.52-4.52,2.92-7.19Z"/>
      <path class="cls-1" d="M387.24,504.11c-3.63-1.87-9.55,.85-12.04,3.73-3.78,4.35-3.19,10.6-3.44,15.99,0,5.71,.08,11.43-.17,17.13-.07,3.03-.26,6.08-.02,9.11,.15,1.23,.19,2.59,1.12,3.51,2.99,4.13,9.53,1.01,8.65-3.77-.02-.19-.04-.37-.05-.56-.19-5.19,.27-10.38,.25-15.57,0-7.12-.18-16.65,.82-19.22,.1-.11,.26-.27,.47-.46,.17-.1,.37-.23,.6-.35,.27-.09,.68-.23,1.1-.32,.32-.07,.55-.12,.73-.15,.49-.04,.96-.15,1.39-.38,.61-.2,1.13-.53,1.57-1.01,2.26-2.15,1.71-6.15-.99-7.68Z"/>
      <path class="cls-1" d="M388.75,609.58c-2.03-1.93-5.09-1.58-7.68-1.57-4.53,.1-9.49,2.57-10.36,7.38-.79,5.89-.86,11.85-.86,17.78-.01,6.99,.72,13.99,.28,20.98-.02,.22-.05,.44-.07,.66-.02,.12-.05,.27-.09,.45-.28,.82-.49,1.69-.27,2.54,.51,5.2,8.19,5.69,9.52,.65,1.58-6.65,.54-13.6,.51-20.37-.22-5.78-.06-16.5,.48-20.12,.17-.05,.36-.1,.56-.14,.52-.04,1.56-.12,2.12-.07,1.43-.04,2.97,.52,4.3-.24,3.18-1.08,3.98-5.67,1.57-7.93Z"/>
    </g>
    <g id="Layer_19_copy_2" data-name="Layer 19 copy 2">
      <circle class="cls-14" cx="504.26" cy="521.92" r="18.95"/>
      <rect class="cls-3" x="610.66" y="503.79" width="18.34" height="50.14"/>
      <rect class="cls-3" x="610.66" y="605.14" width="18.34" height="50.14"/>
      <rect class="cls-3" x="371.37" y="608.2" width="18.34" height="50.14"/>
      <rect class="cls-3" x="371.37" y="503.79" width="18.34" height="50.14"/>
      <path class="cls-3" d="M480.55,716.24l38.48,.69s.34-90.22,.34-119.42c-3.89-14.92-11.42-21.44-18.96-21.51-6.61,0-12.87,5.96-19.19,23.63l-.67,116.61Z"/>
    </g>
    <g id="Layer_13_copy_2" data-name="Layer 13 copy 2">
      <g id="Layer_6_copy_2" data-name="Layer 6 copy 2">
        <polygon class="cls-7" points="163.05 369.38 51.4 468.26 272.52 468.26 163.05 369.38"/>
        <polygon class="cls-7" points="845.75 369.38 734.1 468.26 955.22 468.26 845.75 369.38"/>
      </g>
      <g id="Layer_5_copy_2" data-name="Layer 5 copy 2">
        <rect class="cls-10" x="682.47" y="738.9" width="317.31" height="29.35"/>
        <rect class="cls-10" x="6.85" y="738.9" width="317.31" height="29.35"/>
        <rect class="cls-10" x="6.85" y="464.2" width="317.31" height="29.35"/>
        <rect class="cls-10" x="682.47" y="470.32" width="317.31" height="29.35"/>
      </g>
    </g>
    <polygon class="cls-4" points="501.8 245.18 312.87 418.82 687.06 418.82 501.8 245.18"/>
    <g id="Column_copy_2" data-name="Column copy 2">
      <g id="Layer_15_copy_2" data-name="Layer 15 copy 2">
        <rect class="cls-15" x="298.21" y="454.3" width="39.13" height="246.06"/>
      </g>
      <g>
        <path class="cls-18" d="M354.18,437.69c-6.67-6.11-29.67-3.58-39.03-3.37-6.82,.43-13.62,1.07-20.4,1.97-2.59,.34-5.5,.6-7.89,1.79-2.97-2.28-7.94,0-7.8,3.96,.69,6.24,.99,12.83,4.48,18.26,8.11,11.93,24.25,10.34,36.94,10.1,5.72-.23,11.45-.51,17.14-1.19,4.66-.4,9.42-1.78,12.58-5.44,3.87-4.28,5.52-10.06,6.04-15.71,.38-3.52,.59-7.65-2.08-10.36Z"/>
        <path class="cls-19" d="M343.31,456.84c-.13,.14-.28,.31-.46,.49-.22,.22-.42,.4-.58,.55-3.41,2.22-9.63,1.93-18.22,2.59-14.05,.67-26.2,.85-30.68-3.63-.5-.43-.93-.93-1.34-1.44-.11-.16-.23-.36-.37-.59-.31-.51-.56-1.04-.8-1.58,.14,.33,.09,.23-.02-.06-.1-.22-.2-.44-.29-.66,.13,.29,.22,.5,.29,.65-.11-.28-.28-.72-.41-1.15-.57-2.17-.8-3.29-.94-4.24,.69-.25,1.33-.66,1.98-1.04,4.18-1.06,2.62-.46,7.25-1.16,13.83-1.54,27.79-2.43,41.71-1.95,3.74,.4,3.06-.04,6.25,.98-.11,4.12-.08,3.04-.81,6.67-1.23,3.71-.4,2.28-2.55,5.56Z"/>
      </g>
      <g>
        <path class="cls-18" d="M280.74,714.47c6.38,6.42,29.47,4.95,38.83,5.18,6.83-.11,13.66-.44,20.47-1.01,2.6-.22,5.53-.35,7.96-1.42,2.87,2.42,7.93,.37,7.97-3.59-.4-6.26-.39-12.86-3.63-18.45-7.55-12.29-23.75-11.46-36.43-11.81-5.73-.04-11.47-.03-17.18,.39-4.68,.18-9.49,1.34-12.82,4.85-4.07,4.1-5.99,9.79-6.77,15.41-.54,3.5-.95,7.61,1.59,10.45Z"/>
        <path class="cls-19" d="M292.49,695.85c.14-.14,.29-.29,.49-.46,.23-.21,.44-.38,.61-.52,3.51-2.06,9.71-1.48,18.32-1.74,14.06-.02,26.22,.37,30.48,5.06,.48,.45,.88,.97,1.27,1.5,.1,.17,.22,.37,.34,.6,.28,.52,.51,1.07,.72,1.62-.13-.34-.08-.24,.02,.06,.09,.22,.18,.45,.26,.67-.12-.3-.2-.51-.26-.66,.1,.28,.25,.73,.36,1.17,.46,2.2,.65,3.32,.74,4.28-.7,.22-1.36,.6-2.03,.94-4.22,.86-2.64,.34-7.3,.82-13.89,.9-27.88,1.13-41.76,0-3.72-.58-3.06-.1-6.2-1.27,.3-4.11,.22-3.03,1.12-6.62,1.4-3.65,.5-2.26,2.81-5.43Z"/>
      </g>
      <rect class="cls-15" x="423.74" y="454.99" width="39.13" height="246.06"/>
      <g>
        <path class="cls-18" d="M479.71,438.38c-6.67-6.11-29.67-3.58-39.03-3.37-6.82,.43-13.62,1.07-20.4,1.97-2.59,.34-5.5,.6-7.89,1.79-2.97-2.28-7.94,0-7.8,3.96,.69,6.24,.99,12.83,4.48,18.26,8.11,11.93,24.25,10.34,36.94,10.1,5.72-.23,11.45-.51,17.14-1.19,4.66-.4,9.42-1.78,12.58-5.44,3.87-4.28,5.52-10.06,6.04-15.71,.38-3.52,.59-7.65-2.08-10.36Z"/>
        <path class="cls-19" d="M468.84,457.53c-.13,.14-.28,.31-.46,.49-.22,.22-.42,.4-.58,.55-3.41,2.22-9.63,1.93-18.22,2.59-14.05,.67-26.2,.85-30.68-3.63-.5-.43-.93-.93-1.34-1.44-.11-.16-.23-.36-.37-.59-.31-.51-.56-1.04-.8-1.58,.14,.33,.09,.23-.02-.06-.1-.22-.2-.44-.29-.66,.13,.29,.22,.5,.29,.65-.11-.28-.28-.72-.41-1.15-.57-2.17-.8-3.29-.94-4.24,.69-.25,1.33-.66,1.98-1.04,4.18-1.06,2.62-.46,7.25-1.16,13.83-1.54,27.79-2.43,41.71-1.95,3.74,.4,3.06-.04,6.25,.98-.11,4.12-.08,3.04-.81,6.67-1.23,3.71-.4,2.28-2.55,5.56Z"/>
      </g>
      <g>
        <path class="cls-18" d="M406.27,715.16c6.38,6.42,29.47,4.95,38.83,5.18,6.83-.11,13.66-.44,20.47-1.01,2.6-.22,5.53-.35,7.96-1.42,2.87,2.42,7.93,.37,7.97-3.59-.4-6.26-.39-12.86-3.63-18.45-7.55-12.29-23.75-11.46-36.43-11.81-5.73-.04-11.47-.03-17.18,.39-4.68,.18-9.49,1.34-12.82,4.85-4.07,4.1-5.99,9.79-6.77,15.41-.54,3.5-.95,7.61,1.59,10.45Z"/>
        <path class="cls-19" d="M418.03,696.54c.14-.14,.29-.29,.49-.46,.23-.21,.44-.38,.61-.52,3.51-2.06,9.71-1.48,18.32-1.74,14.06-.02,26.22,.37,30.48,5.06,.48,.45,.88,.97,1.27,1.5,.1,.17,.22,.37,.34,.6,.28,.52,.51,1.07,.72,1.62-.13-.34-.08-.24,.02,.06,.09,.22,.18,.45,.26,.67-.12-.3-.2-.51-.26-.66,.1,.28,.25,.73,.36,1.17,.46,2.2,.65,3.32,.74,4.28-.7,.22-1.36,.6-2.03,.94-4.22,.86-2.64,.34-7.3,.82-13.89,.9-27.88,1.13-41.76,0-3.72-.58-3.06-.1-6.2-1.27,.3-4.11,.22-3.03,1.12-6.62,1.4-3.65,.5-2.26,2.81-5.43Z"/>
      </g>
      <rect class="cls-15" x="542.36" y="454.99" width="39.13" height="246.06"/>
      <g>
        <path class="cls-18" d="M598.33,438.38c-6.67-6.11-29.67-3.58-39.03-3.37-6.82,.43-13.62,1.07-20.4,1.97-2.59,.34-5.5,.6-7.89,1.79-2.97-2.28-7.94,0-7.8,3.96,.69,6.24,.99,12.83,4.48,18.26,8.11,11.93,24.25,10.34,36.94,10.1,5.72-.23,11.45-.51,17.14-1.19,4.66-.4,9.42-1.78,12.58-5.44,3.87-4.28,5.52-10.06,6.04-15.71,.38-3.52,.59-7.65-2.08-10.36Z"/>
        <path class="cls-19" d="M587.46,457.53c-.13,.14-.28,.31-.46,.49-.22,.22-.42,.4-.58,.55-3.41,2.22-9.63,1.93-18.22,2.59-14.05,.67-26.2,.85-30.68-3.63-.5-.43-.93-.93-1.34-1.44-.11-.16-.23-.36-.37-.59-.31-.51-.56-1.04-.8-1.58,.14,.33,.09,.23-.02-.06-.1-.22-.2-.44-.29-.66,.13,.29,.22,.5,.29,.65-.11-.28-.28-.72-.41-1.15-.57-2.17-.8-3.29-.94-4.24,.69-.25,1.33-.66,1.98-1.04,4.18-1.06,2.62-.46,7.25-1.16,13.83-1.54,27.79-2.43,41.71-1.95,3.74,.4,3.06-.04,6.25,.98-.11,4.12-.08,3.04-.81,6.67-1.23,3.71-.4,2.28-2.55,5.56Z"/>
      </g>
      <g>
        <path class="cls-18" d="M524.89,715.16c6.38,6.42,29.47,4.95,38.83,5.18,6.83-.11,13.66-.44,20.47-1.01,2.6-.22,5.53-.35,7.96-1.42,2.87,2.42,7.93,.37,7.97-3.59-.4-6.26-.39-12.86-3.63-18.45-7.55-12.29-23.75-11.46-36.43-11.81-5.73-.04-11.47-.03-17.18,.39-4.68,.18-9.49,1.34-12.82,4.85-4.07,4.1-5.99,9.79-6.77,15.41-.54,3.5-.95,7.61,1.59,10.45Z"/>
        <path class="cls-19" d="M536.64,696.54c.14-.14,.29-.29,.49-.46,.23-.21,.44-.38,.61-.52,3.51-2.06,9.71-1.48,18.32-1.74,14.06-.02,26.22,.37,30.48,5.06,.48,.45,.88,.97,1.27,1.5,.1,.17,.22,.37,.34,.6,.28,.52,.51,1.07,.72,1.62-.13-.34-.08-.24,.02,.06,.09,.22,.18,.45,.26,.67-.12-.3-.2-.51-.26-.66,.1,.28,.25,.73,.36,1.17,.46,2.2,.65,3.32,.74,4.28-.7,.22-1.36,.6-2.03,.94-4.22,.86-2.64,.34-7.3,.82-13.89,.9-27.88,1.13-41.76,0-3.72-.58-3.06-.1-6.2-1.27,.3-4.11,.22-3.03,1.12-6.62,1.4-3.65,.5-2.26,2.81-5.43Z"/>
      </g>
      <rect class="cls-15" x="661.67" y="454.99" width="39.13" height="246.06"/>
      <g>
        <path class="cls-18" d="M717.64,438.38c-6.67-6.11-29.67-3.58-39.03-3.37-6.82,.43-13.62,1.07-20.4,1.97-2.59,.34-5.5,.6-7.89,1.79-2.97-2.28-7.94,0-7.8,3.96,.69,6.24,.99,12.83,4.48,18.26,8.11,11.93,24.25,10.34,36.94,10.1,5.72-.23,11.45-.51,17.14-1.19,4.66-.4,9.42-1.78,12.58-5.44,3.87-4.28,5.52-10.06,6.04-15.71,.38-3.52,.59-7.65-2.08-10.36Z"/>
        <path class="cls-19" d="M706.77,457.53c-.13,.14-.28,.31-.46,.49-.22,.22-.42,.4-.58,.55-3.41,2.22-9.63,1.93-18.22,2.59-14.05,.67-26.2,.85-30.68-3.63-.5-.43-.93-.93-1.34-1.44-.11-.16-.23-.36-.37-.59-.31-.51-.56-1.04-.8-1.58,.14,.33,.09,.23-.02-.06-.1-.22-.2-.44-.29-.66,.13,.29,.22,.5,.29,.65-.11-.28-.28-.72-.41-1.15-.57-2.17-.8-3.29-.94-4.24,.69-.25,1.33-.66,1.98-1.04,4.18-1.06,2.62-.46,7.25-1.16,13.83-1.54,27.79-2.43,41.71-1.95,3.74,.4,3.06-.04,6.25,.98-.11,4.12-.08,3.04-.81,6.67-1.23,3.71-.4,2.28-2.55,5.56Z"/>
      </g>
      <g>
        <path class="cls-18" d="M644.2,715.16c6.38,6.42,29.47,4.95,38.83,5.18,6.83-.11,13.66-.44,20.47-1.01,2.6-.22,5.53-.35,7.96-1.42,2.87,2.42,7.93,.37,7.97-3.59-.4-6.26-.39-12.86-3.63-18.45-7.55-12.29-23.75-11.46-36.43-11.81-5.73-.04-11.47-.03-17.18,.39-4.68,.18-9.49,1.34-12.82,4.85-4.07,4.1-5.99,9.79-6.77,15.41-.54,3.5-.95,7.61,1.59,10.45Z"/>
        <path class="cls-19" d="M655.95,696.54c.14-.14,.29-.29,.49-.46,.23-.21,.44-.38,.61-.52,3.51-2.06,9.71-1.48,18.32-1.74,14.06-.02,26.22,.37,30.48,5.06,.48,.45,.88,.97,1.27,1.5,.1,.17,.22,.37,.34,.6,.28,.52,.51,1.07,.72,1.62-.13-.34-.08-.24,.02,.06,.09,.22,.18,.45,.26,.67-.12-.3-.2-.51-.26-.66,.1,.28,.25,.73,.36,1.17,.46,2.2,.65,3.32,.74,4.28-.7,.22-1.36,.6-2.03,.94-4.22,.86-2.64,.34-7.3,.82-13.89,.9-27.88,1.13-41.76,0-3.72-.58-3.06-.1-6.2-1.27,.3-4.11,.22-3.03,1.12-6.62,1.4-3.65,.5-2.26,2.81-5.43Z"/>
      </g>
    </g>
    <g id="Layer_12_copy_2" data-name="Layer 12 copy 2">
      <path class="cls-9" d="M273.75,443.5v-24.69s166.7-5.5,222.27-5.5,230.18,5.5,230.18,5.5v24.69s-172.96-5.49-230.62-5.49-221.83,5.49-221.83,5.49Z"/>
      <path class="cls-16" d="M730.89,706.49v28s-169.3,6.24-225.73,6.24-233.77-6.24-233.77-6.24v-28s175.66,6.22,234.21,6.22,225.29-6.22,225.29-6.22Z"/>
      <path class="cls-2" d="M749.42,730.95v28s-183.82,6.24-245.09,6.24-253.82-6.24-253.82-6.24v-28s190.73,6.22,254.3,6.22,244.61-6.22,244.61-6.22Z"/>
      <path class="cls-5" d="M769.55,760.3v28s-197.79,6.24-263.72,6.24-273.1-6.24-273.1-6.24v-28s205.22,6.22,273.62,6.22,263.2-6.22,263.2-6.22Z"/>
    </g>
    <g id="Flag_copy_2" data-name="Flag copy 2">
      <path class="cls-13" d="M499.97,177.9l.69,67.27-.69-67.27Z"/>
      <polygon class="cls-6" points="443.15 202.7 500.66 181.35 498.93 226.12 443.15 202.7"/>
    </g>
  </g>
  <g id="Stars_copy_2" data-name="Stars copy 2">
    <path class="cls-20" d="M843.82,786.8s3.11,25.46,18.44,31.27c-14.87,3.97-17.38,29.23-17.38,29.23,0,0-2.69-23.32-17.81-28.81,14.71-7.13,16.75-31.69,16.75-31.69Z"/>
    <path class="cls-20" d="M291.56,308.85s4.35,27.79,25.8,34.13c-20.8,4.33-24.32,31.9-24.32,31.9,0,0-3.77-25.45-24.92-31.44,20.58-7.78,23.44-34.59,23.44-34.59Z"/>
    <path class="cls-20" d="M909.18,294.55s4.48,31.51,26.57,38.7c-21.43,4.91-25.05,36.18-25.05,36.18,0,0-3.88-28.86-25.67-35.66,21.2-8.83,24.14-39.23,24.14-39.23Z"/>
    <path class="cls-20" d="M700.87,183.29s5.84,36.05,34.6,44.27c-27.9,5.62-32.61,41.39-32.61,41.39,0,0-5.06-33.01-33.42-40.78,27.6-10.1,31.44-44.87,31.44-44.87Z"/>
    <path class="cls-20" d="M187.68,806.78s2.92,19.55,17.3,24.02c-13.95,3.05-16.31,22.45-16.31,22.45,0,0-2.53-17.91-16.71-22.12,13.8-5.48,15.72-24.34,15.72-24.34Z"/>
    <path class="cls-20" d="M200.52,197.5s2.92,19.55,17.3,24.02c-13.95,3.05-16.31,22.45-16.31,22.45,0,0-2.53-17.91-16.71-22.12,13.8-5.48,15.72-24.34,15.72-24.34Z"/>
  </g>
</svg>