<?xml version="1.0" encoding="UTF-8"?>
<svg id="Competition_house" data-name="Competition house" xmlns="http://www.w3.org/2000/svg" viewBox="0 0 1000 1000">
  <defs>
    <style>
      .cls-1, .cls-2, .cls-3, .cls-4, .cls-5, .cls-6, .cls-7, .cls-8, .cls-9, .cls-10, .cls-11, .cls-12, .cls-13, .cls-14 {
        stroke-width: 8px;
      }

      .cls-1, .cls-2, .cls-13 {
        fill: none;
      }

      .cls-1, .cls-3, .cls-5, .cls-6, .cls-7, .cls-8, .cls-9, .cls-10, .cls-11, .cls-12, .cls-14 {
        stroke: #dd702d;
      }

      .cls-1, .cls-3, .cls-5, .cls-6, .cls-7, .cls-8, .cls-9, .cls-10, .cls-11, .cls-13, .cls-14 {
        stroke-linecap: round;
        stroke-linejoin: round;
      }

      .cls-15 {
        fill: #262626;
      }

      .cls-16, .cls-3 {
        fill: #fff;
      }

      .cls-2, .cls-4, .cls-12 {
        stroke-miterlimit: 10;
      }

      .cls-2, .cls-13 {
        stroke: #b57322;
      }

      .cls-4 {
        stroke: #b57321;
      }

      .cls-4, .cls-10 {
        fill: #f3efd9;
      }

      .cls-5, .cls-12 {
        fill: #ffbd59;
      }

      .cls-6 {
        fill: #bfbfbf;
      }

      .cls-7, .cls-17 {
        fill: #dd702d;
      }

      .cls-18, .cls-14 {
        fill: #de9a33;
      }

      .cls-8 {
        fill: #f0b359;
      }

      .cls-19 {
        fill: #ffe875;
      }

      .cls-9 {
        fill: #e0e0e0;
      }

      .cls-11 {
        fill: #dbdbdb;
      }

      .cls-20 {
        fill: #404040;
      }

      .cls-21 {
        fill: #c5e2e8;
      }
    </style>
  </defs>
  <g id="Bg">
    <path class="cls-21" d="M95.51,616.99c-23.49-61.73-20.38-132.8,8.4-192.31,28.78-59.51,82.85-106.65,146.29-127.56,62.13-20.47,149.08-.32,203.57-36.15,54.9-36.09,87.12-80.22,151.06-95.7,61.87-14.98,120.8-17.86,170.82,24.27,50.02,42.13,89.49,75.36,110.85,136.7,21.36,61.33,12.24,101.99,41.42,160.11,25.83,51.45,63.21,100.81,64.52,158.2,1.51,65.69-44.49,122.02-87.98,171.83-33.37,38.22-54.81,65.05-105.98,64.85-42.36-.16-96.91-14.61-136.65-29.07-113.6-41.34-230.13,22.98-350.86,13.77-65.94-5.03-135.71-21.73-175.98-73.43-40.27-51.7-57.01-120.53-44.9-184.6"/>
  </g>
  <g id="Clouds">
    <path class="cls-16" d="M974.69,361.55c11.41-23.97-.93-55.83-25.83-66.68-24.9-10.85-57.78,1.31-68.82,25.45-16.66-15.94-40.44-33.11-61.15-22.5-8.63,4.42-14.15,12.78-20.34,20.08-30.51,36-87.19,19.38-140.66,48.38,0,0,220.73-3.26,316.8-4.73Z"/>
    <path class="cls-16" d="M131.75,319.92c-9.56-23.97,17.81-48.11,38.67-58.95s48.31-5.18,57.56,18.96c13.96-15.94,27.29-21.33,46.5-14.62,18.96,6.63,26.32,25.65,100.87,51.71-100.67,0-163.09,4.37-243.61,2.9Z"/>
  </g>
  <g id="Building">
    <g id="Back2">
      <g id="Back_two_walls" data-name="Back two walls">
        <rect class="cls-10" x="33.35" y="515.41" width="934.06" height="267.13"/>
      </g>
      <g id="Windows">
        <g id="Left">
          <path class="cls-11" d="M227.91,719.49l25.4-.28s5.8-44.9-12.21-44.9-13.19,45.18-13.19,45.18Z"/>
          <path class="cls-11" d="M174.39,719.49l25.4-.28s5.8-44.9-12.21-44.9-13.19,45.18-13.19,45.18Z"/>
          <path class="cls-11" d="M123.31,719.49l25.4-.28s5.8-44.9-12.21-44.9-13.19,45.18-13.19,45.18Z"/>
          <path class="cls-11" d="M74.28,719.49l25.4-.28s5.8-44.9-12.21-44.9-13.19,45.18-13.19,45.18Z"/>
          <rect class="cls-11" x="227.99" y="563.91" width="25.54" height="72.97"/>
          <rect class="cls-11" x="74.74" y="563.91" width="25.54" height="72.97"/>
          <rect class="cls-11" x="174.47" y="563.91" width="25.54" height="72.97"/>
          <rect class="cls-11" x="123.39" y="563.91" width="25.54" height="72.97"/>
          <path class="cls-11" d="M227.91,719.49l25.4-.28s5.8-44.9-12.21-44.9-13.19,45.18-13.19,45.18Z"/>
          <path class="cls-11" d="M174.39,719.49l25.4-.28s5.8-44.9-12.21-44.9-13.19,45.18-13.19,45.18Z"/>
          <path class="cls-11" d="M123.31,719.49l25.4-.28s5.8-44.9-12.21-44.9-13.19,45.18-13.19,45.18Z"/>
          <path class="cls-11" d="M74.28,719.49l25.4-.28s5.8-44.9-12.21-44.9-13.19,45.18-13.19,45.18Z"/>
          <rect class="cls-11" x="227.99" y="563.91" width="25.54" height="72.97"/>
          <rect class="cls-11" x="74.74" y="563.91" width="25.54" height="72.97"/>
          <rect class="cls-11" x="174.47" y="563.91" width="25.54" height="72.97"/>
          <rect class="cls-11" x="123.39" y="563.91" width="25.54" height="72.97"/>
        </g>
        <g id="Right">
          <path class="cls-11" d="M902.99,720.39l25.4-.28s5.8-44.9-12.21-44.9-13.19,45.18-13.19,45.18Z"/>
          <path class="cls-11" d="M849.48,720.39l25.4-.28s5.8-44.9-12.21-44.9-13.19,45.18-13.19,45.18Z"/>
          <path class="cls-11" d="M798.4,720.39l25.4-.28s5.8-44.9-12.21-44.9-13.19,45.18-13.19,45.18Z"/>
          <path class="cls-11" d="M749.36,720.39l25.4-.28s5.8-44.9-12.21-44.9-13.19,45.18-13.19,45.18Z"/>
          <rect class="cls-11" x="903.07" y="564.81" width="25.54" height="72.97"/>
          <rect class="cls-11" x="749.83" y="564.81" width="25.54" height="72.97"/>
          <rect class="cls-11" x="798.48" y="564.81" width="25.54" height="72.97"/>
          <rect class="cls-11" x="849.56" y="564.81" width="25.54" height="72.97"/>
        </g>
      </g>
    </g>
    <g id="Layer_16" data-name="Layer 16">
      <rect class="cls-4" x="294.66" y="452.63" width="403.79" height="312.29"/>
    </g>
    <g id="Layer_17" data-name="Layer 17">
      <path class="cls-20" d="M516.37,550.87c-1.13-4.2-4.07-7.89-7.88-9.98-8.71-4.31-17.37-1.89-20.74,7.64-2.33,5.47-1.4,12.41,2.73,16.78,.92,1.01,2.23,1.84,3.6,2.25,.85,1.07,1.84,1.99,2.97,2.69,5.29,3.13,12.08,.9,15.89-3.55,4.01-4.2,4.76-10.36,3.43-15.83Z"/>
      <path class="cls-20" d="M620.55,535.95c-1.66-1.11-4.14-1.14-5.67,.23-.62,.42-1.08,.99-1.39,1.62-2.72-.44-5.85,1.37-5.81,4.74-.35,9.04-.71,18.09-.41,27.14,.34,5.54-.46,11.54,2.41,16.55,2.32,4.11,7.65,5.13,10.9,1.47,4.59-5.67,4.77-13.5,5.49-20.46,.31-7.66,1.22-26.7-5.52-31.27Z"/>
      <path class="cls-20" d="M614.58,638.22c-.33,.2-.6,.42-.86,.65-2.84-1.69-7.36-.33-7.48,4.1,.2,14.06-.52,28.91,5.04,42.11,1.53,2.51,5.01,3.56,7.59,2.05,5.4-3.7,5.3-14.94,5.9-21,.26-6.13,.78-33.07-10.19-27.9Z"/>
      <path class="cls-20" d="M385.9,540.42c-.61-1.81-2.57-3-4.45-2.99-1.8,.08-2.95,.74-3.69,1.72-2.5-.82-5.66,.39-6.36,3.25-1.39,10.08-1.41,20.39,.11,30.46,.44,3.03,1.05,6.03,1.82,9,.43,1.3,.44,2.83,1.43,3.87,1.89,2.77,6.41,2.39,8.02-.49,1.1-1.95,.52-4.31,.83-6.45,.27-4.33,.49-8.65,.76-12.98,.31-5.54,.84-11.06,1.38-16.57,0-2.76,1.13-6.25,.14-8.81Z"/>
      <path class="cls-20" d="M385.9,643.83c-.61-1.81-2.57-3-4.45-2.99-1.8,.08-2.95,.74-3.69,1.72-2.5-.82-5.66,.39-6.36,3.25-1.39,10.08-1.41,20.39,.11,30.46,.44,3.03,1.05,6.03,1.82,9,.43,1.3,.44,2.83,1.43,3.87,1.89,2.77,6.41,2.39,8.02-.49,1.1-1.95,.52-4.31,.83-6.45,.27-4.33,.49-8.65,.76-12.98,.31-5.54,.84-11.06,1.38-16.57,0-2.76,1.13-6.25,.14-8.81Z"/>
      <path class="cls-20" d="M516.77,653.26c.67-4.14,.18-8.37-.03-12.53-.53-6.98-1.97-14.16-5.85-20.1-.43-.68-.94-1.28-1.48-1.79-.18-.42-.35-.84-.55-1.25-2.58-6.32-12.08-11.99-16.82-4.7-.18,.36-.33,.72-.45,1.09-1.08,.01-2.21,.35-3.35,1.1-2.56,.79-4.45,3.23-5.33,5.73-.42,1.94-.56,3.96-.46,5.94,.01,.1,.02,.21,.03,.31-.07,.38-.09,.77-.14,1.16-.37,.81-.73,1.62-1.05,2.44-9.33,23.05-3.65,48.41-2.59,72.42,.14,2.04,.3,4.09,.45,6.13-.33,5.79-.61,11.59-.8,17.39,.06,4.75-.75,9.77,.46,14.38,1.11,2.88,4.19,3.5,6.51,2.46,1.04,.66,2.34,.91,3.86,.52,.94-.23,1.68-.79,2.32-1.47,1.03,.14,2.09,.04,3.16-.39,2.35-.51,2.94-1.34,3.39-1.29,.1-.03,.21-.04,.31-.07,.55-.01,1.76-.11,2.37-.23,.76-.13,1.48-.4,2.18-.69,1.31,3.62,6.8,3.89,8.62,.53,1.25-2.97,.95-7.27,1.52-10.55,.36-3.56,.72-7.12,1.06-10.69,1.51-16.22,2.36-32.5,2.65-48.79,.09-5.44,.08-10.89-.21-16.32,.1-.24,.2-.48,.26-.74Z"/>
    </g>
    <g id="Layer_18" data-name="Layer 18">
      <path class="cls-15" d="M510.5,614.57c.03-.09,.08-.18,.1-.27,1.42-8.29-10.77-7.46-15.31-4.22-5.19,3.74-8.09,8.9-9.74,14.71-11.37,21.39-9.29,52.76-8.3,75.95,.73,15.64,1.07,31.29,1.66,46.93,.1,2.4,0,5.3,2.2,6.82,2.69,2.31,7,.61,7.8-2.7,1.66-11.24,1.34-22.66,1.71-33.99,.48-17.9,1.04-35.79,1.77-53.68,.3-7.66,.51-15.32,.83-22.97,.32-5.52,.48-9.29,1.36-12.76,2.32-3.98,4.98-6.58,7.76-7.33,.36-.13,.72-.22,1.1-.29,.13,0,.26-.01,.4-.01,1.09,.5,2.31,.71,3.49,.35,2.93-.7,4.13-4.01,3.19-6.53Z"/>
      <path class="cls-15" d="M515.88,537.31c-1.64-1.51-4.02-1.86-6.13-2.37-2.63-.5-5.32-.67-7.97-.18-7.64,1.24-13.36,7.87-15.91,14.87-2.05,6.64-1.82,14.16,.77,20.62,3.09,5.87,11.71,1.21,8.55-4.61-1.98-6.49-1.46-16.73,6.48-20.81,1.56-.55,3.43-1.34,8.6,.29,4.91,2.35,9.41-3.91,5.6-7.81Z"/>
      <path class="cls-15" d="M624.86,537.38c-1.3-1.37-3.26-1.51-5.02-1.74-3.33-.33-6.74,.85-9.16,3.15-3.3,3.17-4,7.88-4.54,12.21-.6,4.69-.81,9.42-.8,14.14,.23,6.99-.19,14.23,1.19,21.07,1.86,4.87,9.37,3.33,9.31-1.87-1.07-13.42-1.43-32.67,1.43-38.37,.1-.11,.2-.21,.29-.29,.13-.08,.26-.16,.39-.23,.14-.04,.3-.09,.48-.13,.12,0,.26,0,.44-.01,.19,.01,.33,.02,.45,.03,.92,.2,1.82,.52,2.75,.27,3.91-.26,5.6-5.58,2.79-8.22Z"/>
      <path class="cls-15" d="M627.83,640.22c-1.52-2.31-4.58-3.18-7.14-3.82-4.59-.9-9.81,.74-12.47,4.72-2.78,4.45-2.72,9.98-3.03,15.05-.13,8.06-.52,16.13-.29,24.2,.07,2.15,.17,4.3,.3,6.45,.03,1.62,.26,3.32,1.5,4.48,2.86,3.05,8.44,.76,8.3-3.44-.7-8.81-.42-17.65-.21-26.48,.19-7.41,.15-12.45,1.62-14.98,.15-.09,.3-.2,.45-.28,.29-.1,.59-.18,.89-.24,.12,0,.25,0,.41-.01,.15,0,.27,.01,.38,.02,.57,.12,1.13,.28,1.68,.49,.29,.14,.64,.32,.94,.5,1.12,.66,2.5,.84,3.75,.49,3.02-.76,4.5-4.49,2.91-7.15Z"/>
      <path class="cls-15" d="M384.93,537.46c-3.61-1.86-9.5,.85-11.97,3.71-3.76,4.33-3.17,10.54-3.42,15.91,0,5.68,.08,11.36-.16,17.04-.07,3.02-.26,6.04-.02,9.06,.15,1.22,.19,2.57,1.11,3.49,2.97,4.11,9.48,1,8.6-3.75-.02-.19-.04-.37-.05-.56-.19-5.16,.27-10.32,.25-15.48,0-7.08-.18-16.56,.82-19.11,.1-.11,.26-.27,.46-.46,.16-.1,.37-.23,.6-.35,.27-.09,.67-.22,1.09-.32,.32-.07,.55-.12,.73-.15,.48-.04,.95-.15,1.39-.38,.6-.2,1.12-.53,1.57-1.01,2.25-2.14,1.7-6.11-.98-7.64Z"/>
      <path class="cls-15" d="M386.43,642.36c-2.02-1.92-5.06-1.57-7.64-1.56-4.51,.1-9.44,2.55-10.31,7.34-.79,5.86-.86,11.79-.86,17.69-.01,6.96,.72,13.92,.28,20.87-.02,.22-.05,.43-.07,.65-.02,.12-.05,.26-.09,.45-.28,.82-.49,1.68-.27,2.53,.51,5.17,8.15,5.66,9.47,.65,1.57-6.61,.54-13.53,.5-20.26-.21-5.75-.06-16.41,.48-20.01,.17-.05,.36-.1,.56-.14,.52-.04,1.55-.12,2.11-.07,1.43-.04,2.96,.52,4.27-.24,3.17-1.07,3.96-5.64,1.57-7.89Z"/>
    </g>
    <g id="Layer_19" data-name="Layer 19">
      <circle class="cls-2" cx="501.33" cy="555.18" r="18.85"/>
      <rect class="cls-13" x="607.15" y="537.15" width="18.24" height="49.87"/>
      <rect class="cls-13" x="607.15" y="637.95" width="18.24" height="49.87"/>
      <rect class="cls-13" x="369.15" y="640.99" width="18.24" height="49.87"/>
      <rect class="cls-13" x="369.15" y="537.15" width="18.24" height="49.87"/>
      <path class="cls-13" d="M477.75,748.45l38.28,.69s.34-89.73,.34-118.77c-3.87-14.84-11.36-21.33-18.86-21.4-6.57,0-12.8,5.93-19.09,23.5l-.67,115.98Z"/>
    </g>
    <g id="Layer_13" data-name="Layer 13">
      <g id="Layer_6" data-name="Layer 6">
        <polygon class="cls-8" points="161.95 403.46 50.91 501.8 270.84 501.8 161.95 403.46"/>
        <polygon class="cls-8" points="840.97 403.46 729.93 501.8 949.86 501.8 840.97 403.46"/>
      </g>
      <g id="Layer_5" data-name="Layer 5">
        <rect class="cls-14" x="678.57" y="770.99" width="315.6" height="29.19"/>
        <rect class="cls-14" x="6.59" y="770.99" width="315.6" height="29.19"/>
        <rect class="cls-14" x="6.59" y="497.77" width="315.6" height="29.19"/>
        <rect class="cls-14" x="678.57" y="503.86" width="315.6" height="29.19"/>
      </g>
    </g>
    <polygon class="cls-5" points="498.88 279.93 310.97 452.63 683.14 452.63 498.88 279.93"/>
    <g id="Column">
      <g id="Layer_15" data-name="Layer 15">
        <rect class="cls-12" x="296.38" y="487.92" width="38.92" height="244.74"/>
      </g>
      <g>
        <path class="cls-17" d="M352.05,471.4c-6.63-6.08-29.51-3.56-38.82-3.35-6.78,.42-13.55,1.07-20.29,1.95-2.58,.34-5.47,.6-7.84,1.78-2.96-2.27-7.89,0-7.76,3.94,.69,6.2,.99,12.76,4.46,18.16,8.07,11.86,24.12,10.28,36.74,10.04,5.69-.23,11.39-.5,17.05-1.19,4.64-.4,9.37-1.77,12.51-5.41,3.85-4.26,5.49-10.01,6.01-15.63,.38-3.5,.59-7.61-2.07-10.31Z"/>
        <path class="cls-18" d="M341.24,490.45c-.13,.14-.28,.3-.46,.48-.22,.22-.42,.4-.58,.55-3.39,2.21-9.58,1.92-18.12,2.58-13.97,.67-26.06,.85-30.51-3.61-.5-.43-.92-.92-1.33-1.43-.11-.16-.23-.35-.36-.58-.3-.5-.56-1.04-.79-1.57,.14,.33,.09,.23-.02-.06-.1-.22-.2-.44-.29-.66,.13,.29,.22,.5,.28,.64-.11-.27-.28-.72-.41-1.15-.56-2.16-.8-3.27-.94-4.22,.69-.25,1.32-.66,1.97-1.03,4.15-1.05,2.61-.46,7.21-1.15,13.76-1.54,27.64-2.42,41.49-1.93,3.72,.4,3.04-.04,6.21,.98-.11,4.1-.08,3.02-.81,6.63-1.22,3.69-.4,2.27-2.54,5.53Z"/>
      </g>
      <g>
        <path class="cls-17" d="M279.01,746.69c6.34,6.38,29.31,4.93,38.62,5.16,6.79-.11,13.59-.43,20.36-1.01,2.59-.22,5.5-.35,7.92-1.41,2.85,2.41,7.88,.37,7.93-3.57-.4-6.23-.39-12.79-3.61-18.35-7.51-12.23-23.62-11.4-36.23-11.74-5.7-.04-11.4-.03-17.09,.39-4.65,.18-9.44,1.33-12.75,4.82-4.05,4.08-5.95,9.74-6.73,15.33-.54,3.48-.94,7.57,1.59,10.39Z"/>
        <path class="cls-18" d="M290.7,728.17c.13-.14,.29-.29,.48-.46,.23-.2,.44-.38,.6-.52,3.49-2.05,9.66-1.47,18.22-1.73,13.99-.02,26.07,.37,30.31,5.03,.47,.45,.88,.96,1.27,1.49,.1,.17,.22,.36,.34,.6,.28,.52,.51,1.06,.72,1.61-.13-.33-.08-.24,.02,.06,.09,.22,.18,.44,.26,.67-.12-.3-.2-.51-.25-.65,.1,.28,.25,.73,.36,1.17,.46,2.19,.65,3.31,.74,4.26-.7,.22-1.35,.6-2.02,.94-4.2,.86-2.63,.34-7.26,.81-13.82,.89-27.73,1.13-41.54,0-3.7-.58-3.04-.1-6.16-1.26,.3-4.09,.22-3.01,1.12-6.59,1.39-3.63,.5-2.24,2.79-5.4Z"/>
      </g>
      <rect class="cls-12" x="421.24" y="488.61" width="38.92" height="244.74"/>
      <g>
        <path class="cls-17" d="M476.91,472.09c-6.63-6.08-29.51-3.56-38.82-3.35-6.78,.42-13.55,1.07-20.29,1.95-2.58,.34-5.47,.6-7.84,1.78-2.96-2.27-7.89,0-7.76,3.94,.69,6.2,.99,12.76,4.46,18.16,8.07,11.86,24.12,10.28,36.74,10.04,5.69-.23,11.39-.5,17.05-1.19,4.64-.4,9.37-1.77,12.51-5.41,3.85-4.26,5.49-10.01,6.01-15.63,.38-3.5,.59-7.61-2.07-10.31Z"/>
        <path class="cls-18" d="M466.1,491.13c-.13,.14-.28,.3-.46,.48-.22,.22-.42,.4-.58,.55-3.39,2.21-9.58,1.92-18.12,2.58-13.97,.67-26.06,.85-30.51-3.61-.5-.43-.92-.92-1.33-1.43-.11-.16-.23-.35-.36-.58-.3-.5-.56-1.04-.79-1.57,.14,.33,.09,.23-.02-.06-.1-.22-.2-.44-.29-.66,.13,.29,.22,.5,.28,.64-.11-.27-.28-.72-.41-1.15-.56-2.16-.8-3.27-.94-4.22,.69-.25,1.32-.66,1.97-1.03,4.15-1.05,2.61-.46,7.21-1.15,13.76-1.54,27.64-2.42,41.49-1.93,3.72,.4,3.04-.04,6.21,.98-.11,4.1-.08,3.02-.81,6.63-1.22,3.69-.4,2.27-2.54,5.53Z"/>
      </g>
      <g>
        <path class="cls-17" d="M403.87,747.38c6.34,6.38,29.31,4.93,38.62,5.16,6.79-.11,13.59-.43,20.36-1.01,2.59-.22,5.5-.35,7.92-1.41,2.85,2.41,7.88,.37,7.93-3.57-.4-6.23-.39-12.79-3.61-18.35-7.51-12.23-23.62-11.4-36.23-11.74-5.7-.04-11.4-.03-17.09,.39-4.65,.18-9.44,1.33-12.75,4.82-4.05,4.08-5.95,9.74-6.73,15.33-.54,3.48-.94,7.57,1.59,10.39Z"/>
        <path class="cls-18" d="M415.55,728.86c.13-.14,.29-.29,.48-.46,.23-.2,.44-.38,.6-.52,3.49-2.05,9.66-1.47,18.22-1.73,13.99-.02,26.07,.37,30.31,5.03,.47,.45,.88,.96,1.27,1.49,.1,.17,.22,.36,.34,.6,.28,.52,.51,1.06,.72,1.61-.13-.33-.08-.24,.02,.06,.09,.22,.18,.44,.26,.67-.12-.3-.2-.51-.25-.65,.1,.28,.25,.73,.36,1.17,.46,2.19,.65,3.31,.74,4.26-.7,.22-1.35,.6-2.02,.94-4.2,.86-2.63,.34-7.26,.81-13.82,.89-27.73,1.13-41.54,0-3.7-.58-3.04-.1-6.16-1.26,.3-4.09,.22-3.01,1.12-6.59,1.39-3.63,.5-2.24,2.79-5.4Z"/>
      </g>
      <rect class="cls-12" x="539.22" y="488.61" width="38.92" height="244.74"/>
      <g>
        <path class="cls-17" d="M594.88,472.09c-6.63-6.08-29.51-3.56-38.82-3.35-6.78,.42-13.55,1.07-20.29,1.95-2.58,.34-5.47,.6-7.84,1.78-2.96-2.27-7.89,0-7.76,3.94,.69,6.2,.99,12.76,4.46,18.16,8.07,11.86,24.12,10.28,36.74,10.04,5.69-.23,11.39-.5,17.05-1.19,4.64-.4,9.37-1.77,12.51-5.41,3.85-4.26,5.49-10.01,6.01-15.63,.38-3.5,.59-7.61-2.07-10.31Z"/>
        <path class="cls-18" d="M584.07,491.13c-.13,.14-.28,.3-.46,.48-.22,.22-.42,.4-.58,.55-3.39,2.21-9.58,1.92-18.12,2.58-13.97,.67-26.06,.85-30.51-3.61-.5-.43-.92-.92-1.33-1.43-.11-.16-.23-.35-.36-.58-.3-.5-.56-1.04-.79-1.57,.14,.33,.09,.23-.02-.06-.1-.22-.2-.44-.29-.66,.13,.29,.22,.5,.28,.64-.11-.27-.28-.72-.41-1.15-.56-2.16-.8-3.27-.94-4.22,.69-.25,1.32-.66,1.97-1.03,4.15-1.05,2.61-.46,7.21-1.15,13.76-1.54,27.64-2.42,41.49-1.93,3.72,.4,3.04-.04,6.21,.98-.11,4.1-.08,3.02-.81,6.63-1.22,3.69-.4,2.27-2.54,5.53Z"/>
      </g>
      <g>
        <path class="cls-17" d="M521.84,747.38c6.34,6.38,29.31,4.93,38.62,5.16,6.79-.11,13.59-.43,20.36-1.01,2.59-.22,5.5-.35,7.92-1.41,2.85,2.41,7.88,.37,7.93-3.57-.4-6.23-.39-12.79-3.61-18.35-7.51-12.23-23.62-11.4-36.23-11.74-5.7-.04-11.4-.03-17.09,.39-4.65,.18-9.44,1.33-12.75,4.82-4.05,4.08-5.95,9.74-6.73,15.33-.54,3.48-.94,7.57,1.59,10.39Z"/>
        <path class="cls-18" d="M533.53,728.86c.13-.14,.29-.29,.48-.46,.23-.2,.44-.38,.6-.52,3.49-2.05,9.66-1.47,18.22-1.73,13.99-.02,26.07,.37,30.31,5.03,.47,.45,.88,.96,1.27,1.49,.1,.17,.22,.36,.34,.6,.28,.52,.51,1.06,.72,1.61-.13-.33-.08-.24,.02,.06,.09,.22,.18,.44,.26,.67-.12-.3-.2-.51-.25-.65,.1,.28,.25,.73,.36,1.17,.46,2.19,.65,3.31,.74,4.26-.7,.22-1.35,.6-2.02,.94-4.2,.86-2.63,.34-7.26,.81-13.82,.89-27.73,1.13-41.54,0-3.7-.58-3.04-.1-6.16-1.26,.3-4.09,.22-3.01,1.12-6.59,1.39-3.63,.5-2.24,2.79-5.4Z"/>
      </g>
      <rect class="cls-12" x="657.88" y="488.61" width="38.92" height="244.74"/>
      <g>
        <path class="cls-17" d="M713.55,472.09c-6.63-6.08-29.51-3.56-38.82-3.35-6.78,.42-13.55,1.07-20.29,1.95-2.58,.34-5.47,.6-7.84,1.78-2.96-2.27-7.89,0-7.76,3.94,.69,6.2,.99,12.76,4.46,18.16,8.07,11.86,24.12,10.28,36.74,10.04,5.69-.23,11.39-.5,17.05-1.19,4.64-.4,9.37-1.77,12.51-5.41,3.85-4.26,5.49-10.01,6.01-15.63,.38-3.5,.59-7.61-2.07-10.31Z"/>
        <path class="cls-18" d="M702.74,491.13c-.13,.14-.28,.3-.46,.48-.22,.22-.42,.4-.58,.55-3.39,2.21-9.58,1.92-18.12,2.58-13.97,.67-26.06,.85-30.51-3.61-.5-.43-.92-.92-1.33-1.43-.11-.16-.23-.35-.36-.58-.3-.5-.56-1.04-.79-1.57,.14,.33,.09,.23-.02-.06-.1-.22-.2-.44-.29-.66,.13,.29,.22,.5,.28,.64-.11-.27-.28-.72-.41-1.15-.56-2.16-.8-3.27-.94-4.22,.69-.25,1.32-.66,1.97-1.03,4.15-1.05,2.61-.46,7.21-1.15,13.76-1.54,27.64-2.42,41.49-1.93,3.72,.4,3.04-.04,6.21,.98-.11,4.1-.08,3.02-.81,6.63-1.22,3.69-.4,2.27-2.54,5.53Z"/>
      </g>
      <g>
        <path class="cls-17" d="M640.51,747.38c6.34,6.38,29.31,4.93,38.62,5.16,6.79-.11,13.59-.43,20.36-1.01,2.59-.22,5.5-.35,7.92-1.41,2.85,2.41,7.88,.37,7.93-3.57-.4-6.23-.39-12.79-3.61-18.35-7.51-12.23-23.62-11.4-36.23-11.74-5.7-.04-11.4-.03-17.09,.39-4.65,.18-9.44,1.33-12.75,4.82-4.05,4.08-5.95,9.74-6.73,15.33-.54,3.48-.94,7.57,1.59,10.39Z"/>
        <path class="cls-18" d="M652.19,728.86c.13-.14,.29-.29,.48-.46,.23-.2,.44-.38,.6-.52,3.49-2.05,9.66-1.47,18.22-1.73,13.99-.02,26.07,.37,30.31,5.03,.47,.45,.88,.96,1.27,1.49,.1,.17,.22,.36,.34,.6,.28,.52,.51,1.06,.72,1.61-.13-.33-.08-.24,.02,.06,.09,.22,.18,.44,.26,.67-.12-.3-.2-.51-.25-.65,.1,.28,.25,.73,.36,1.17,.46,2.19,.65,3.31,.74,4.26-.7,.22-1.35,.6-2.02,.94-4.2,.86-2.63,.34-7.26,.81-13.82,.89-27.73,1.13-41.54,0-3.7-.58-3.04-.1-6.16-1.26,.3-4.09,.22-3.01,1.12-6.59,1.39-3.63,.5-2.24,2.79-5.4Z"/>
      </g>
    </g>
    <g id="Layer_12" data-name="Layer 12">
      <path class="cls-14" d="M272.05,477.18v-24.55s165.8-5.47,221.07-5.47,228.94,5.47,228.94,5.47v24.55s-172.03-5.46-229.37-5.46-220.63,5.46-220.63,5.46Z"/>
      <path class="cls-6" d="M726.74,738.76v27.85s-168.39,6.21-224.52,6.21-232.51-6.21-232.51-6.21v-27.85s174.71,6.19,232.95,6.19,224.07-6.19,224.07-6.19Z"/>
      <path class="cls-9" d="M745.16,763.08v27.85s-182.83,6.21-243.77,6.21-252.45-6.21-252.45-6.21v-27.85s189.7,6.19,252.93,6.19,243.29-6.19,243.29-6.19Z"/>
      <path class="cls-3" d="M765.19,792.27v27.85s-196.72,6.21-262.29,6.21-271.63-6.21-271.63-6.21v-27.85s204.11,6.19,272.15,6.19,261.78-6.19,261.78-6.19Z"/>
    </g>
    <g id="Flag">
      <path class="cls-1" d="M497.05,213.02l.69,66.91-.69-66.91Z"/>
      <polygon class="cls-7" points="440.54 237.68 497.74 216.44 496.03 260.97 440.54 237.68"/>
    </g>
  </g>
  <g id="Stars">
    <path class="cls-19" d="M776.9,161.59s3.09,25.32,18.34,31.1c-14.79,3.95-17.29,29.07-17.29,29.07,0,0-2.68-23.19-17.71-28.65,14.63-7.09,16.66-31.52,16.66-31.52Z"/>
    <path class="cls-19" d="M289.77,343.26s4.33,27.64,25.66,33.94c-20.69,4.31-24.19,31.73-24.19,31.73,0,0-3.75-25.31-24.78-31.27,20.47-7.74,23.31-34.41,23.31-34.41Z"/>
    <path class="cls-19" d="M914.64,780.11s4.46,31.34,26.43,38.5c-21.31,4.88-24.91,35.99-24.91,35.99,0,0-3.86-28.71-25.53-35.46,21.09-8.78,24.01-39.02,24.01-39.02Z"/>
    <path class="cls-19" d="M613.19,213.02s5.81,35.85,34.41,44.03c-27.75,5.59-32.44,41.16-32.44,41.16,0,0-5.03-32.84-33.24-40.56,27.46-10.04,31.27-44.63,31.27-44.63Z"/>
    <path class="cls-19" d="M157.27,796.15s2.9,19.45,17.21,23.89c-13.87,3.03-16.22,22.33-16.22,22.33,0,0-2.51-17.81-16.62-22.01,13.73-5.45,15.63-24.21,15.63-24.21Z"/>
    <path class="cls-19" d="M163.61,295.14s2.9,19.45,17.21,23.89c-13.87,3.03-16.22,22.33-16.22,22.33,0,0-2.51-17.81-16.62-22.01,13.73-5.45,15.63-24.21,15.63-24.21Z"/>
  </g>
</svg>