<?xml version="1.0" encoding="UTF-8"?>
<svg id="Vocabulary_house" data-name="Vocabulary house" xmlns="http://www.w3.org/2000/svg" viewBox="0 0 1000 1000">
  <defs>
    <style>
      .cls-1 {
        fill: #262626;
      }

      .cls-2, .cls-3 {
        fill: #fff;
      }

      .cls-4, .cls-5, .cls-6, .cls-7, .cls-8, .cls-9, .cls-10, .cls-11, .cls-3, .cls-12, .cls-13, .cls-14, .cls-15 {
        stroke-width: 8px;
      }

      .cls-4, .cls-5, .cls-6, .cls-7, .cls-9, .cls-10, .cls-3, .cls-12, .cls-13, .cls-15 {
        stroke: #ffcc4a;
      }

      .cls-4, .cls-5, .cls-6, .cls-8, .cls-9, .cls-10, .cls-3, .cls-12, .cls-13, .cls-15 {
        stroke-linecap: round;
        stroke-linejoin: round;
      }

      .cls-4, .cls-14 {
        fill: #f3efd9;
      }

      .cls-5, .cls-7 {
        fill: #ffe16f;
      }

      .cls-6, .cls-16 {
        fill: #ffcc4a;
      }

      .cls-17, .cls-15 {
        fill: #b8a454;
      }

      .cls-7, .cls-11, .cls-14 {
        stroke-miterlimit: 10;
      }

      .cls-8, .cls-11, .cls-13 {
        fill: none;
      }

      .cls-8, .cls-11, .cls-14 {
        stroke: #a38c2e;
      }

      .cls-9 {
        fill: #dbdbdb;
      }

      .cls-10 {
        fill: #e0e0e0;
      }

      .cls-18 {
        fill: #ffe875;
      }

      .cls-12 {
        fill: #bfbfbf;
      }

      .cls-19 {
        fill: #404040;
      }

      .cls-20 {
        fill: #c5e2e8;
      }
    </style>
  </defs>
  <g id="Bg_copy_4" data-name="Bg copy 4">
    <path class="cls-20" d="M922.31,578.85c22.99-60.66,72.24-115.48,60.85-179.43-14.3-80.29-119.66-222.9-179.25-228.18-63.8-5.65-136.91,82-200.52,76.37-76.54-6.78-128.42-36.57-189.47-57.16-63.98-21.58-138.29-30.07-192.37,0-56.01,31.15-83.95,53.93-89.25,117.53-5.16,61.96,15.42,96.61-13.15,153.72-25.29,50.56-84.22,51.47-98.12,111.25-14.62,62.89,9.21,110.09,51.79,159.04,32.67,37.56,49.3,88.82,98.72,97.04,42.03,6.99,293.61-30.03,334.98-28.69,72.71,2.36,125.91,31.71,244.12,22.65,64.56-4.94,93.58-20.86,133-71.66,39.43-50.8,55.82-118.45,43.96-181.41"/>
  </g>
  <g id="Clouds_copy_3" data-name="Clouds copy 3">
    <path class="cls-2" d="M985.55,281.26c12.22-36.2-1-84.3-27.67-100.68-26.67-16.38-61.9,1.98-73.73,38.42-17.85-24.07-43.32-49.99-65.51-33.97-9.25,6.67-15.16,19.3-21.79,30.33-32.68,54.35-93.4,29.26-150.68,73.06,0,0,236.47-4.93,339.38-7.15Z"/>
    <path class="cls-2" d="M78.68,356.3c-11.15-26.93,20.77-54.03,45.11-66.21,24.34-12.18,56.35-5.81,67.14,21.29,16.28-17.9,31.84-23.96,54.23-16.42,22.12,7.45,30.7,28.81,117.65,58.08-117.41,0-190.23,4.91-284.13,3.26Z"/>
  </g>
  <g id="Building_copy_3" data-name="Building copy 3">
    <g id="Back2_copy_3" data-name="Back2 copy 3">
      <g id="Back_two_walls_copy_3" data-name="Back two walls copy 3">
        <rect class="cls-4" x="40.49" y="481.53" width="917.93" height="262.52"/>
      </g>
      <g id="Windows_copy_3" data-name="Windows copy 3">
        <g id="Left_copy_3" data-name="Left copy 3">
          <path class="cls-9" d="M231.68,682.09l24.96-.28s5.7-44.12-12-44.12-12.96,44.4-12.96,44.4Z"/>
          <path class="cls-9" d="M179.09,682.09l24.96-.28s5.7-44.12-12-44.12-12.96,44.4-12.96,44.4Z"/>
          <path class="cls-9" d="M128.9,682.09l24.96-.28s5.7-44.12-12-44.12-12.96,44.4-12.96,44.4Z"/>
          <path class="cls-9" d="M80.71,682.09l24.96-.28s5.7-44.12-12-44.12-12.96,44.4-12.96,44.4Z"/>
          <rect class="cls-9" x="231.76" y="529.19" width="25.1" height="71.71"/>
          <rect class="cls-9" x="81.17" y="529.19" width="25.1" height="71.71"/>
          <rect class="cls-9" x="179.17" y="529.19" width="25.1" height="71.71"/>
          <rect class="cls-9" x="128.97" y="529.19" width="25.1" height="71.71"/>
          <path class="cls-9" d="M231.68,682.09l24.96-.28s5.7-44.12-12-44.12-12.96,44.4-12.96,44.4Z"/>
          <path class="cls-9" d="M179.09,682.09l24.96-.28s5.7-44.12-12-44.12-12.96,44.4-12.96,44.4Z"/>
          <path class="cls-9" d="M128.9,682.09l24.96-.28s5.7-44.12-12-44.12-12.96,44.4-12.96,44.4Z"/>
          <path class="cls-9" d="M80.71,682.09l24.96-.28s5.7-44.12-12-44.12-12.96,44.4-12.96,44.4Z"/>
          <rect class="cls-9" x="231.76" y="529.19" width="25.1" height="71.71"/>
          <rect class="cls-9" x="81.17" y="529.19" width="25.1" height="71.71"/>
          <rect class="cls-9" x="179.17" y="529.19" width="25.1" height="71.71"/>
          <rect class="cls-9" x="128.97" y="529.19" width="25.1" height="71.71"/>
        </g>
        <g id="Right_copy_3" data-name="Right copy 3">
          <path class="cls-9" d="M895.11,682.97l24.96-.28s5.7-44.12-12-44.12-12.96,44.4-12.96,44.4Z"/>
          <path class="cls-9" d="M842.52,682.97l24.96-.28s5.7-44.12-12-44.12-12.96,44.4-12.96,44.4Z"/>
          <path class="cls-9" d="M792.32,682.97l24.96-.28s5.7-44.12-12-44.12-12.96,44.4-12.96,44.4Z"/>
          <path class="cls-9" d="M744.13,682.97l24.96-.28s5.7-44.12-12-44.12-12.96,44.4-12.96,44.4Z"/>
          <rect class="cls-9" x="895.19" y="530.07" width="25.1" height="71.71"/>
          <rect class="cls-9" x="744.59" y="530.07" width="25.1" height="71.71"/>
          <rect class="cls-9" x="792.4" y="530.07" width="25.1" height="71.71"/>
          <rect class="cls-9" x="842.6" y="530.07" width="25.1" height="71.71"/>
        </g>
      </g>
    </g>
    <g id="Layer_16_copy_3" data-name="Layer 16 copy 3">
      <rect class="cls-14" x="297.29" y="419.83" width="396.81" height="306.9"/>
    </g>
    <g id="Layer_17_copy_3" data-name="Layer 17 copy 3">
      <path class="cls-19" d="M515.17,516.37c-1.11-4.13-4-7.75-7.74-9.81-8.56-4.24-17.07-1.86-20.38,7.51-2.29,5.38-1.37,12.19,2.68,16.49,.91,.99,2.19,1.81,3.54,2.21,.83,1.05,1.81,1.95,2.92,2.64,5.2,3.08,11.87,.88,15.61-3.48,3.94-4.13,4.67-10.18,3.37-15.56Z"/>
      <path class="cls-19" d="M617.55,501.72c-1.63-1.09-4.07-1.12-5.57,.22-.61,.41-1.06,.97-1.37,1.59-2.67-.44-5.75,1.35-5.71,4.66-.34,8.88-.7,17.77-.4,26.67,.34,5.45-.45,11.34,2.37,16.26,2.28,4.04,7.51,5.04,10.71,1.44,4.51-5.58,4.69-13.27,5.39-20.11,.3-7.53,1.2-26.24-5.43-30.73Z"/>
      <path class="cls-19" d="M611.67,602.22c-.32,.2-.59,.41-.84,.64-2.79-1.66-7.23-.33-7.35,4.03,.2,13.81-.51,28.41,4.95,41.38,1.5,2.46,4.92,3.5,7.45,2.01,5.3-3.63,5.21-14.68,5.8-20.64,.26-6.03,.76-32.5-10.01-27.42Z"/>
      <path class="cls-19" d="M386.94,506.11c-.6-1.78-2.53-2.95-4.37-2.94-1.77,.08-2.9,.72-3.62,1.69-2.45-.81-5.57,.38-6.25,3.2-1.36,9.91-1.38,20.04,.11,29.93,.44,2.98,1.03,5.93,1.79,8.84,.42,1.28,.44,2.78,1.4,3.8,1.86,2.72,6.3,2.35,7.88-.48,1.08-1.92,.51-4.24,.82-6.34,.27-4.25,.48-8.5,.75-12.76,.31-5.44,.83-10.86,1.35-16.29,0-2.72,1.11-6.14,.14-8.65Z"/>
      <path class="cls-19" d="M386.94,607.73c-.6-1.78-2.53-2.95-4.37-2.94-1.77,.08-2.9,.72-3.62,1.69-2.45-.81-5.57,.38-6.25,3.2-1.36,9.91-1.38,20.04,.11,29.93,.44,2.98,1.03,5.93,1.79,8.84,.42,1.28,.44,2.78,1.4,3.8,1.86,2.72,6.3,2.35,7.88-.48,1.08-1.92,.51-4.24,.82-6.34,.27-4.25,.48-8.5,.75-12.76,.31-5.44,.83-10.86,1.35-16.29,0-2.72,1.11-6.14,.14-8.65Z"/>
      <path class="cls-19" d="M515.55,616.99c.66-4.07,.17-8.23-.03-12.32-.53-6.86-1.94-13.92-5.75-19.76-.43-.67-.92-1.25-1.46-1.76-.18-.41-.35-.83-.54-1.23-2.53-6.21-11.87-11.78-16.53-4.62-.18,.35-.33,.71-.45,1.07-1.06,.01-2.17,.34-3.29,1.08-2.52,.78-4.37,3.17-5.24,5.63-.42,1.91-.55,3.89-.45,5.84,0,.1,.02,.2,.03,.3-.07,.38-.09,.76-.13,1.14-.37,.79-.71,1.59-1.04,2.4-9.17,22.65-3.58,47.57-2.55,71.17,.14,2.01,.29,4.02,.44,6.03-.33,5.69-.6,11.39-.79,17.09,.06,4.67-.74,9.6,.45,14.13,1.09,2.83,4.12,3.44,6.4,2.42,1.02,.65,2.3,.9,3.79,.51,.93-.23,1.65-.77,2.28-1.44,1.01,.14,2.06,.04,3.1-.38,2.31-.5,2.89-1.32,3.33-1.27,.1-.03,.2-.04,.3-.07,.54-.01,1.73-.11,2.33-.23,.74-.13,1.45-.39,2.15-.68,1.29,3.55,6.68,3.82,8.48,.52,1.23-2.92,.93-7.14,1.49-10.36,.36-3.5,.71-7,1.04-10.5,1.48-15.94,2.32-31.94,2.6-47.94,.09-5.35,.08-10.7-.21-16.04,.09-.24,.19-.47,.25-.73Z"/>
    </g>
    <g id="Layer_18_copy_3" data-name="Layer 18 copy 3">
      <path class="cls-1" d="M509.4,578.97c.03-.09,.08-.18,.1-.27,1.4-8.15-10.58-7.33-15.05-4.15-5.1,3.68-7.95,8.75-9.57,14.46-11.17,21.03-9.12,51.85-8.15,74.64,.71,15.37,1.05,30.75,1.63,46.12,.1,2.36,0,5.21,2.16,6.7,2.64,2.27,6.88,.6,7.67-2.65,1.63-11.04,1.32-22.27,1.68-33.4,.47-17.59,1.03-35.17,1.74-52.75,.29-7.52,.5-15.05,.81-22.57,.31-5.43,.47-9.13,1.33-12.54,2.28-3.91,4.9-6.47,7.62-7.2,.35-.13,.71-.21,1.08-.29,.13,0,.26-.01,.39-.01,1.07,.49,2.27,.69,3.43,.35,2.88-.68,4.06-3.94,3.14-6.42Z"/>
      <path class="cls-1" d="M514.68,503.05c-1.61-1.48-3.95-1.83-6.02-2.33-2.59-.49-5.23-.65-7.83-.17-7.51,1.21-13.13,7.74-15.63,14.61-2.02,6.53-1.79,13.92,.76,20.26,3.03,5.76,11.51,1.19,8.4-4.53-1.95-6.38-1.43-16.44,6.37-20.45,1.53-.54,3.37-1.32,8.45,.28,4.82,2.31,9.25-3.85,5.5-7.68Z"/>
      <path class="cls-1" d="M621.78,503.12c-1.28-1.34-3.2-1.49-4.94-1.71-3.27-.33-6.62,.83-9,3.1-3.24,3.11-3.93,7.75-4.46,12-.59,4.61-.79,9.26-.79,13.9,.23,6.86-.19,13.99,1.16,20.7,1.83,4.78,9.21,3.27,9.15-1.84-1.05-13.19-1.4-32.1,1.41-37.7,.1-.11,.2-.21,.28-.29,.13-.08,.26-.16,.39-.23,.14-.04,.3-.09,.47-.13,.11,0,.26,0,.43-.01,.18,.01,.33,.02,.44,.03,.9,.2,1.79,.51,2.7,.27,3.84-.25,5.5-5.49,2.74-8.08Z"/>
      <path class="cls-1" d="M624.7,604.18c-1.5-2.27-4.5-3.12-7.01-3.76-4.51-.89-9.64,.72-12.26,4.64-2.73,4.37-2.68,9.8-2.98,14.79-.12,7.92-.51,15.85-.28,23.78,.07,2.11,.17,4.23,.3,6.34,.03,1.59,.25,3.27,1.48,4.4,2.81,3,8.3,.74,8.16-3.38-.69-8.66-.41-17.35-.2-26.02,.18-7.29,.15-12.23,1.59-14.72,.15-.09,.29-.19,.45-.28,.29-.1,.57-.17,.87-.23,.11,0,.24,0,.41-.01,.15,0,.27,.01,.38,.02,.56,.12,1.11,.28,1.65,.48,.28,.14,.63,.31,.92,.49,1.1,.64,2.46,.82,3.68,.48,2.97-.74,4.42-4.42,2.86-7.02Z"/>
      <path class="cls-1" d="M386,503.2c-3.55-1.83-9.34,.83-11.77,3.65-3.69,4.25-3.11,10.36-3.36,15.63,0,5.58,.08,11.17-.16,16.75-.07,2.96-.25,5.94-.02,8.9,.15,1.2,.19,2.53,1.09,3.43,2.92,4.04,9.31,.98,8.46-3.69-.02-.18-.04-.36-.05-.55-.18-5.07,.26-10.14,.24-15.22,0-6.96-.18-16.27,.8-18.78,.1-.11,.26-.27,.45-.45,.16-.1,.37-.22,.59-.34,.26-.09,.66-.22,1.07-.31,.32-.07,.54-.11,.72-.15,.48-.04,.94-.15,1.36-.37,.59-.19,1.11-.52,1.54-.99,2.21-2.1,1.67-6.01-.97-7.51Z"/>
      <path class="cls-1" d="M387.47,606.29c-1.99-1.88-4.97-1.54-7.51-1.53-4.43,.1-9.28,2.51-10.13,7.22-.78,5.75-.84,11.58-.84,17.38-.01,6.84,.71,13.68,.28,20.51-.02,.21-.04,.43-.07,.64-.02,.12-.05,.26-.09,.44-.27,.8-.48,1.65-.26,2.48,.5,5.08,8.01,5.56,9.31,.64,1.54-6.5,.53-13.3,.49-19.91-.21-5.65-.06-16.12,.47-19.67,.17-.05,.36-.1,.55-.14,.51-.04,1.52-.12,2.07-.07,1.4-.04,2.91,.51,4.2-.24,3.11-1.06,3.89-5.54,1.54-7.75Z"/>
    </g>
    <g id="Layer_19_copy_3" data-name="Layer 19 copy 3">
      <circle class="cls-11" cx="500.38" cy="520.61" r="18.53"/>
      <rect class="cls-8" x="604.37" y="502.89" width="17.93" height="49"/>
      <rect class="cls-8" x="604.37" y="601.95" width="17.93" height="49"/>
      <rect class="cls-8" x="370.49" y="604.94" width="17.93" height="49"/>
      <rect class="cls-8" x="370.49" y="502.89" width="17.93" height="49"/>
      <path class="cls-8" d="M477.21,710.54l37.61,.68s.33-88.18,.33-116.72c-3.8-14.59-11.17-20.96-18.53-21.03-6.46,0-12.58,5.83-18.76,23.09l-.66,113.98Z"/>
    </g>
    <g id="Layer_13_copy_3" data-name="Layer 13 copy 3">
      <g id="Layer_6_copy_3" data-name="Layer 6 copy 3">
        <polygon class="cls-5" points="166.87 371.51 57.74 468.16 273.87 468.16 166.87 371.51"/>
        <polygon class="cls-5" points="834.16 371.51 725.03 468.16 941.16 468.16 834.16 371.51"/>
      </g>
      <g id="Layer_5_copy_3" data-name="Layer 5 copy 3">
        <rect class="cls-15" x="674.57" y="732.69" width="310.14" height="28.69"/>
        <rect class="cls-15" x="14.2" y="732.69" width="310.14" height="28.69"/>
        <rect class="cls-15" x="14.2" y="464.2" width="310.14" height="28.69"/>
        <rect class="cls-15" x="674.57" y="470.17" width="310.14" height="28.69"/>
      </g>
    </g>
    <polygon class="cls-5" points="497.98 250.11 313.31 419.83 679.05 419.83 497.98 250.11"/>
    <g id="Column_copy_3" data-name="Column copy 3">
      <g id="Layer_15_copy_3" data-name="Layer 15 copy 3">
        <rect class="cls-7" x="298.98" y="454.51" width="38.25" height="240.51"/>
      </g>
      <g>
        <path class="cls-16" d="M353.68,438.28c-6.52-5.98-29-3.5-38.15-3.29-6.66,.42-13.32,1.05-19.94,1.92-2.53,.34-5.38,.59-7.71,1.75-2.91-2.23-7.76,0-7.62,3.87,.68,6.1,.97,12.54,4.38,17.85,7.93,11.66,23.71,10.11,36.11,9.87,5.59-.22,11.2-.5,16.76-1.17,4.56-.39,9.21-1.74,12.29-5.32,3.79-4.19,5.4-9.83,5.91-15.36,.37-3.44,.58-7.47-2.03-10.13Z"/>
        <path class="cls-17" d="M343.06,456.99c-.13,.14-.27,.3-.45,.48-.21,.21-.41,.39-.57,.54-3.33,2.17-9.41,1.89-17.81,2.53-13.73,.66-25.61,.83-29.99-3.55-.49-.42-.91-.91-1.31-1.4-.11-.16-.23-.35-.36-.57-.3-.49-.55-1.02-.78-1.55,.14,.32,.09,.23-.02-.06-.09-.21-.19-.43-.28-.64,.13,.29,.22,.49,.28,.63-.11-.27-.27-.7-.4-1.13-.55-2.12-.79-3.22-.92-4.14,.68-.25,1.3-.65,1.94-1.01,4.08-1.03,2.56-.45,7.09-1.13,13.52-1.51,27.17-2.37,40.77-1.9,3.65,.4,2.99-.04,6.11,.96-.11,4.03-.07,2.97-.79,6.52-1.2,3.63-.39,2.23-2.49,5.43Z"/>
      </g>
      <g>
        <path class="cls-16" d="M281.9,708.81c6.23,6.27,28.8,4.84,37.95,5.07,6.68-.1,13.35-.43,20-.99,2.54-.22,5.4-.34,7.78-1.39,2.8,2.37,7.75,.36,7.79-3.51-.39-6.12-.38-12.57-3.54-18.03-7.38-12.02-23.21-11.2-35.61-11.54-5.6-.04-11.21-.03-16.79,.39-4.57,.18-9.28,1.31-12.53,4.74-3.98,4.01-5.85,9.57-6.62,15.06-.53,3.42-.93,7.44,1.56,10.21Z"/>
        <path class="cls-17" d="M293.39,690.61c.13-.13,.29-.29,.48-.45,.22-.2,.43-.37,.59-.51,3.43-2.02,9.49-1.45,17.91-1.7,13.74-.02,25.62,.36,29.79,4.94,.47,.44,.86,.95,1.24,1.46,.1,.16,.21,.36,.33,.59,.28,.51,.5,1.04,.71,1.58-.12-.33-.08-.23,.02,.06,.08,.22,.17,.44,.25,.66-.11-.29-.19-.5-.25-.64,.1,.27,.24,.71,.35,1.14,.45,2.15,.64,3.25,.73,4.18-.69,.21-1.33,.59-1.98,.92-4.13,.84-2.58,.33-7.13,.8-13.58,.88-27.25,1.11-40.82,0-3.63-.57-2.99-.1-6.06-1.24,.3-4.02,.21-2.96,1.1-6.47,1.37-3.57,.49-2.21,2.74-5.31Z"/>
      </g>
      <rect class="cls-7" x="421.68" y="455.19" width="38.25" height="240.51"/>
      <g>
        <path class="cls-16" d="M476.39,438.96c-6.52-5.98-29-3.5-38.15-3.29-6.66,.42-13.32,1.05-19.94,1.92-2.53,.34-5.38,.59-7.71,1.75-2.91-2.23-7.76,0-7.62,3.87,.68,6.1,.97,12.54,4.38,17.85,7.93,11.66,23.71,10.11,36.11,9.87,5.59-.22,11.2-.5,16.76-1.17,4.56-.39,9.21-1.74,12.29-5.32,3.79-4.19,5.4-9.83,5.91-15.36,.37-3.44,.58-7.47-2.03-10.13Z"/>
        <path class="cls-17" d="M465.76,457.67c-.13,.14-.27,.3-.45,.48-.21,.21-.41,.39-.57,.54-3.33,2.17-9.41,1.89-17.81,2.53-13.73,.66-25.61,.83-29.99-3.55-.49-.42-.91-.91-1.31-1.4-.11-.16-.23-.35-.36-.57-.3-.49-.55-1.02-.78-1.55,.14,.32,.09,.23-.02-.06-.09-.21-.19-.43-.28-.64,.13,.29,.22,.49,.28,.63-.11-.27-.27-.7-.4-1.13-.55-2.12-.79-3.22-.92-4.14,.68-.25,1.3-.65,1.94-1.01,4.08-1.03,2.56-.45,7.09-1.13,13.52-1.51,27.17-2.37,40.77-1.9,3.65,.4,2.99-.04,6.11,.96-.11,4.03-.07,2.97-.79,6.52-1.2,3.63-.39,2.23-2.49,5.43Z"/>
      </g>
      <g>
        <path class="cls-16" d="M404.61,709.49c6.23,6.27,28.8,4.84,37.95,5.07,6.68-.1,13.35-.43,20-.99,2.54-.22,5.4-.34,7.78-1.39,2.8,2.37,7.75,.36,7.79-3.51-.39-6.12-.38-12.57-3.54-18.03-7.38-12.02-23.21-11.2-35.61-11.54-5.6-.04-11.21-.03-16.79,.39-4.57,.18-9.28,1.31-12.53,4.74-3.98,4.01-5.85,9.57-6.62,15.06-.53,3.42-.93,7.44,1.56,10.21Z"/>
        <path class="cls-17" d="M416.09,691.29c.13-.13,.29-.29,.48-.45,.22-.2,.43-.37,.59-.51,3.43-2.02,9.49-1.45,17.91-1.7,13.74-.02,25.62,.36,29.79,4.94,.47,.44,.86,.95,1.24,1.46,.1,.16,.21,.36,.33,.59,.28,.51,.5,1.04,.71,1.58-.12-.33-.08-.23,.02,.06,.08,.22,.17,.44,.25,.66-.11-.29-.19-.5-.25-.64,.1,.27,.24,.71,.35,1.14,.45,2.15,.64,3.25,.73,4.18-.69,.21-1.33,.59-1.98,.92-4.13,.84-2.58,.33-7.13,.8-13.58,.88-27.25,1.11-40.82,0-3.63-.57-2.99-.1-6.06-1.24,.3-4.02,.21-2.96,1.1-6.47,1.37-3.57,.49-2.21,2.74-5.31Z"/>
      </g>
      <rect class="cls-7" x="537.62" y="455.19" width="38.25" height="240.51"/>
      <g>
        <path class="cls-16" d="M592.32,438.96c-6.52-5.98-29-3.5-38.15-3.29-6.66,.42-13.32,1.05-19.94,1.92-2.53,.34-5.38,.59-7.71,1.75-2.91-2.23-7.76,0-7.62,3.87,.68,6.1,.97,12.54,4.38,17.85,7.93,11.66,23.71,10.11,36.11,9.87,5.59-.22,11.2-.5,16.76-1.17,4.56-.39,9.21-1.74,12.29-5.32,3.79-4.19,5.4-9.83,5.91-15.36,.37-3.44,.58-7.47-2.03-10.13Z"/>
        <path class="cls-17" d="M581.7,457.67c-.13,.14-.27,.3-.45,.48-.21,.21-.41,.39-.57,.54-3.33,2.17-9.41,1.89-17.81,2.53-13.73,.66-25.61,.83-29.99-3.55-.49-.42-.91-.91-1.31-1.4-.11-.16-.23-.35-.36-.57-.3-.49-.55-1.02-.78-1.55,.14,.32,.09,.23-.02-.06-.09-.21-.19-.43-.28-.64,.13,.29,.22,.49,.28,.63-.11-.27-.27-.7-.4-1.13-.55-2.12-.79-3.22-.92-4.14,.68-.25,1.3-.65,1.94-1.01,4.08-1.03,2.56-.45,7.09-1.13,13.52-1.51,27.17-2.37,40.77-1.9,3.65,.4,2.99-.04,6.11,.96-.11,4.03-.07,2.97-.79,6.52-1.2,3.63-.39,2.23-2.49,5.43Z"/>
      </g>
      <g>
        <path class="cls-16" d="M520.54,709.49c6.23,6.27,28.8,4.84,37.95,5.07,6.68-.1,13.35-.43,20-.99,2.54-.22,5.4-.34,7.78-1.39,2.8,2.37,7.75,.36,7.79-3.51-.39-6.12-.38-12.57-3.54-18.03-7.38-12.02-23.21-11.2-35.61-11.54-5.6-.04-11.21-.03-16.79,.39-4.57,.18-9.28,1.31-12.53,4.74-3.98,4.01-5.85,9.57-6.62,15.06-.53,3.42-.93,7.44,1.56,10.21Z"/>
        <path class="cls-17" d="M532.03,691.29c.13-.13,.29-.29,.48-.45,.22-.2,.43-.37,.59-.51,3.43-2.02,9.49-1.45,17.91-1.7,13.74-.02,25.62,.36,29.79,4.94,.47,.44,.86,.95,1.24,1.46,.1,.16,.21,.36,.33,.59,.28,.51,.5,1.04,.71,1.58-.12-.33-.08-.23,.02,.06,.08,.22,.17,.44,.25,.66-.11-.29-.19-.5-.25-.64,.1,.27,.24,.71,.35,1.14,.45,2.15,.64,3.25,.73,4.18-.69,.21-1.33,.59-1.98,.92-4.13,.84-2.58,.33-7.13,.8-13.58,.88-27.25,1.11-40.82,0-3.63-.57-2.99-.1-6.06-1.24,.3-4.02,.21-2.96,1.1-6.47,1.37-3.57,.49-2.21,2.74-5.31Z"/>
      </g>
      <rect class="cls-7" x="654.23" y="455.19" width="38.25" height="240.51"/>
      <g>
        <path class="cls-16" d="M708.94,438.96c-6.52-5.98-29-3.5-38.15-3.29-6.66,.42-13.32,1.05-19.94,1.92-2.53,.34-5.38,.59-7.71,1.75-2.91-2.23-7.76,0-7.62,3.87,.68,6.1,.97,12.54,4.38,17.85,7.93,11.66,23.71,10.11,36.11,9.87,5.59-.22,11.2-.5,16.76-1.17,4.56-.39,9.21-1.74,12.29-5.32,3.79-4.19,5.4-9.83,5.91-15.36,.37-3.44,.58-7.47-2.03-10.13Z"/>
        <path class="cls-17" d="M698.31,457.67c-.13,.14-.27,.3-.45,.48-.21,.21-.41,.39-.57,.54-3.33,2.17-9.41,1.89-17.81,2.53-13.73,.66-25.61,.83-29.99-3.55-.49-.42-.91-.91-1.31-1.4-.11-.16-.23-.35-.36-.57-.3-.49-.55-1.02-.78-1.55,.14,.32,.09,.23-.02-.06-.09-.21-.19-.43-.28-.64,.13,.29,.22,.49,.28,.63-.11-.27-.27-.7-.4-1.13-.55-2.12-.79-3.22-.92-4.14,.68-.25,1.3-.65,1.94-1.01,4.08-1.03,2.56-.45,7.09-1.13,13.52-1.51,27.17-2.37,40.77-1.9,3.65,.4,2.99-.04,6.11,.96-.11,4.03-.07,2.97-.79,6.52-1.2,3.63-.39,2.23-2.49,5.43Z"/>
      </g>
      <g>
        <path class="cls-16" d="M637.16,709.49c6.23,6.27,28.8,4.84,37.95,5.07,6.68-.1,13.35-.43,20-.99,2.54-.22,5.4-.34,7.78-1.39,2.8,2.37,7.75,.36,7.79-3.51-.39-6.12-.38-12.57-3.54-18.03-7.38-12.02-23.21-11.2-35.61-11.54-5.6-.04-11.21-.03-16.79,.39-4.57,.18-9.28,1.31-12.53,4.74-3.98,4.01-5.85,9.57-6.62,15.06-.53,3.42-.93,7.44,1.56,10.21Z"/>
        <path class="cls-17" d="M648.64,691.29c.13-.13,.29-.29,.48-.45,.22-.2,.43-.37,.59-.51,3.43-2.02,9.49-1.45,17.91-1.7,13.74-.02,25.62,.36,29.79,4.94,.47,.44,.86,.95,1.24,1.46,.1,.16,.21,.36,.33,.59,.28,.51,.5,1.04,.71,1.58-.12-.33-.08-.23,.02,.06,.08,.22,.17,.44,.25,.66-.11-.29-.19-.5-.25-.64,.1,.27,.24,.71,.35,1.14,.45,2.15,.64,3.25,.73,4.18-.69,.21-1.33,.59-1.98,.92-4.13,.84-2.58,.33-7.13,.8-13.58,.88-27.25,1.11-40.82,0-3.63-.57-2.99-.1-6.06-1.24,.3-4.02,.21-2.96,1.1-6.47,1.37-3.57,.49-2.21,2.74-5.31Z"/>
      </g>
    </g>
    <g id="Layer_12_copy_3" data-name="Layer 12 copy 3">
      <path class="cls-15" d="M275.07,443.96v-24.13s162.94-5.38,217.25-5.38,224.98,5.38,224.98,5.38v24.13s-169.06-5.36-225.41-5.36-216.82,5.36-216.82,5.36Z"/>
      <path class="cls-12" d="M721.9,701.02v27.37s-165.48,6.1-220.64,6.1-228.49-6.1-228.49-6.1v-27.37s171.69,6.08,228.93,6.08,220.2-6.08,220.2-6.08Z"/>
      <path class="cls-10" d="M740.01,724.92v27.37s-179.67,6.1-239.56,6.1-248.09-6.1-248.09-6.1v-27.37s186.42,6.08,248.56,6.08,239.09-6.08,239.09-6.08Z"/>
      <path class="cls-3" d="M759.68,753.61v27.37s-193.32,6.1-257.76,6.1-266.94-6.1-266.94-6.1v-27.37s200.58,6.08,267.45,6.08,257.25-6.08,257.25-6.08Z"/>
    </g>
    <g id="Flag_copy_3" data-name="Flag copy 3">
      <path class="cls-13" d="M496.18,184.36l.67,65.75-.67-65.75Z"/>
      <polygon class="cls-6" points="440.64 208.59 496.86 187.72 495.17 231.48 440.64 208.59"/>
    </g>
  </g>
  <g id="Stars_copy_3" data-name="Stars copy 3">
    <path class="cls-18" d="M653.41,238.9s3.04,24.89,18.02,30.56c-14.53,3.88-16.99,28.57-16.99,28.57,0,0-2.63-22.79-17.41-28.16,14.38-6.97,16.37-30.98,16.37-30.98Z"/>
    <path class="cls-18" d="M361.67,236.2s4.26,27.16,25.21,33.36c-20.33,4.23-23.77,31.18-23.77,31.18,0,0-3.68-24.88-24.36-30.73,20.12-7.61,22.91-33.81,22.91-33.81Z"/>
    <path class="cls-18" d="M828.45,747.87s4.38,30.8,25.97,37.83c-20.95,4.8-24.48,35.36-24.48,35.36,0,0-3.8-28.21-25.09-34.85,20.72-8.63,23.6-38.34,23.6-38.34Z"/>
    <path class="cls-18" d="M930.98,320.46s5.71,35.23,33.82,43.27c-27.27,5.49-31.88,40.45-31.88,40.45,0,0-4.94-32.27-32.66-39.86,26.98-9.87,30.73-43.86,30.73-43.86Z"/>
    <path class="cls-18" d="M109.88,761.76s2.85,19.11,16.91,23.47c-13.64,2.98-15.94,21.94-15.94,21.94,0,0-2.47-17.51-16.33-21.63,13.49-5.35,15.36-23.79,15.36-23.79Z"/>
    <path class="cls-18" d="M230.99,166.23s2.85,19.11,16.91,23.47c-13.64,2.98-15.94,21.94-15.94,21.94,0,0-2.47-17.51-16.33-21.63,13.49-5.35,15.36-23.79,15.36-23.79Z"/>
  </g>
</svg>