<?xml version="1.0" encoding="UTF-8"?>
<svg id="Reading_house" data-name="Reading house" xmlns="http://www.w3.org/2000/svg" viewBox="0 0 1000 1000">
  <defs>
    <style>
      .cls-1 {
        fill: #262626;
      }

      .cls-2, .cls-3 {
        fill: #fff;
      }

      .cls-4, .cls-5, .cls-6, .cls-7, .cls-8, .cls-9, .cls-10, .cls-3, .cls-11, .cls-12, .cls-13, .cls-14, .cls-15, .cls-16 {
        stroke-width: 8px;
      }

      .cls-4, .cls-5, .cls-6, .cls-7, .cls-9, .cls-10, .cls-3, .cls-11, .cls-13, .cls-14, .cls-16 {
        stroke: #53936c;
      }

      .cls-4, .cls-5, .cls-7, .cls-9, .cls-10, .cls-3, .cls-11, .cls-12, .cls-13, .cls-14, .cls-16 {
        stroke-linecap: round;
        stroke-linejoin: round;
      }

      .cls-4, .cls-6 {
        fill: #aed5aa;
      }

      .cls-5, .cls-17 {
        fill: #799e75;
      }

      .cls-6, .cls-8, .cls-15 {
        stroke-miterlimit: 10;
      }

      .cls-7, .cls-18 {
        fill: #53936c;
      }

      .cls-8, .cls-10, .cls-12 {
        fill: none;
      }

      .cls-8, .cls-12, .cls-15 {
        stroke: #457a59;
      }

      .cls-9, .cls-15 {
        fill: #f3efd9;
      }

      .cls-19 {
        fill: #ffe875;
      }

      .cls-11 {
        fill: #bfbfbf;
      }

      .cls-13 {
        fill: #dbdbdb;
      }

      .cls-14 {
        fill: #e0e0e0;
      }

      .cls-20 {
        fill: #404040;
      }

      .cls-21 {
        fill: #c5e2e8;
      }

      .cls-16 {
        fill: #9fc29b;
      }
    </style>
  </defs>
  <g id="Bg_copy" data-name="Bg copy">
    <path class="cls-21" d="M95.7,614.53c-22.95-60.33-72.12-114.85-60.75-178.45,14.27-79.85,119.46-221.68,178.94-226.93,63.69-5.62,136.68,81.55,200.17,75.95,76.41-6.74,128.19-36.37,189.14-56.85,63.87-21.46,138.05-29.91,192.04,0,55.91,30.98,83.81,53.63,89.1,116.89,5.15,61.62-15.39,96.08,13.13,152.88,25.25,50.28,84.07,51.19,97.95,110.64,14.6,62.54-9.19,109.49-51.7,158.17-32.61,37.35-49.22,88.34-98.55,96.51-41.95,6.95-293.1-29.86-334.4-28.53-72.59,2.35-125.7,31.53-243.7,22.53-64.45-4.92-93.42-20.74-132.78-71.27s-55.72-117.81-43.88-180.42"/>
  </g>
  <g id="Clouds_copy" data-name="Clouds copy">
    <path class="cls-2" d="M911.33,308.83c9.83-30.23-.8-70.41-22.26-84.09-21.46-13.68-49.8,1.65-59.32,32.09-14.36-20.1-34.86-41.75-52.71-28.38-7.44,5.57-12.2,16.12-17.54,25.33-26.3,45.39-75.15,24.44-121.24,61.02,0,0,190.27-4.11,273.08-5.97Z"/>
    <path class="cls-2" d="M38.36,386.45c-10.64-29.6,19.83-59.4,43.06-72.79,23.23-13.39,53.78-6.39,64.09,23.41,15.54-19.68,30.39-26.34,51.77-18.05,21.11,8.19,29.31,31.67,112.3,63.85-112.07,0-181.58,5.4-271.21,3.58Z"/>
  </g>
  <g id="Building_copy" data-name="Building copy">
    <g id="Back2_copy" data-name="Back2 copy">
      <g id="Back_two_walls_copy" data-name="Back two walls copy">
        <rect class="cls-9" x="34.95" y="515.25" width="912.92" height="261.08"/>
      </g>
      <g id="Windows_copy" data-name="Windows copy">
        <g id="Left_copy" data-name="Left copy">
          <path class="cls-13" d="M225.1,714.71l24.82-.27s5.67-43.88-11.93-43.88-12.89,44.16-12.89,44.16Z"/>
          <path class="cls-13" d="M172.8,714.71l24.82-.27s5.67-43.88-11.93-43.88-12.89,44.16-12.89,44.16Z"/>
          <path class="cls-13" d="M122.87,714.71l24.82-.27s5.67-43.88-11.93-43.88-12.89,44.16-12.89,44.16Z"/>
          <path class="cls-13" d="M74.95,714.71l24.82-.27s5.67-43.88-11.93-43.88-12.89,44.16-12.89,44.16Z"/>
          <rect class="cls-13" x="225.18" y="562.65" width="24.96" height="71.32"/>
          <rect class="cls-13" x="75.41" y="562.65" width="24.96" height="71.32"/>
          <rect class="cls-13" x="172.88" y="562.65" width="24.96" height="71.32"/>
          <rect class="cls-13" x="122.95" y="562.65" width="24.96" height="71.32"/>
          <path class="cls-13" d="M225.1,714.71l24.82-.27s5.67-43.88-11.93-43.88-12.89,44.16-12.89,44.16Z"/>
          <path class="cls-13" d="M172.8,714.71l24.82-.27s5.67-43.88-11.93-43.88-12.89,44.16-12.89,44.16Z"/>
          <path class="cls-13" d="M122.87,714.71l24.82-.27s5.67-43.88-11.93-43.88-12.89,44.16-12.89,44.16Z"/>
          <path class="cls-13" d="M74.95,714.71l24.82-.27s5.67-43.88-11.93-43.88-12.89,44.16-12.89,44.16Z"/>
          <rect class="cls-13" x="225.18" y="562.65" width="24.96" height="71.32"/>
          <rect class="cls-13" x="75.41" y="562.65" width="24.96" height="71.32"/>
          <rect class="cls-13" x="172.88" y="562.65" width="24.96" height="71.32"/>
          <rect class="cls-13" x="122.95" y="562.65" width="24.96" height="71.32"/>
        </g>
        <g id="Right_copy" data-name="Right copy">
          <path class="cls-13" d="M884.91,715.59l24.82-.27s5.67-43.88-11.93-43.88-12.89,44.16-12.89,44.16Z"/>
          <path class="cls-13" d="M832.6,715.59l24.82-.27s5.67-43.88-11.93-43.88-12.89,44.16-12.89,44.16Z"/>
          <path class="cls-13" d="M782.68,715.59l24.82-.27s5.67-43.88-11.93-43.88-12.89,44.16-12.89,44.16Z"/>
          <path class="cls-13" d="M734.75,715.59l24.82-.27s5.67-43.88-11.93-43.88-12.89,44.16-12.89,44.16Z"/>
          <rect class="cls-13" x="884.98" y="563.53" width="24.96" height="71.32"/>
          <rect class="cls-13" x="735.21" y="563.53" width="24.96" height="71.32"/>
          <rect class="cls-13" x="782.76" y="563.53" width="24.96" height="71.32"/>
          <rect class="cls-13" x="832.68" y="563.53" width="24.96" height="71.32"/>
        </g>
      </g>
    </g>
    <g id="Layer_16_copy" data-name="Layer 16 copy">
      <rect class="cls-15" x="290.35" y="453.89" width="394.65" height="305.22"/>
    </g>
    <g id="Layer_17_copy" data-name="Layer 17 copy">
      <path class="cls-20" d="M507.04,549.9c-1.11-4.11-3.97-7.71-7.7-9.76-8.51-4.21-16.98-1.85-20.27,7.47-2.27,5.35-1.37,12.13,2.67,16.4,.9,.99,2.18,1.8,3.52,2.2,.83,1.04,1.8,1.94,2.9,2.63,5.17,3.06,11.81,.88,15.53-3.46,3.92-4.11,4.65-10.13,3.35-15.47Z"/>
      <path class="cls-20" d="M608.86,535.33c-1.63-1.09-4.05-1.12-5.54,.22-.61,.41-1.06,.96-1.36,1.58-2.66-.43-5.72,1.34-5.68,4.63-.34,8.84-.7,17.68-.4,26.52,.34,5.42-.45,11.28,2.36,16.17,2.27,4.02,7.47,5.01,10.65,1.43,4.48-5.55,4.66-13.2,5.36-20,.3-7.49,1.19-26.09-5.4-30.56Z"/>
      <path class="cls-20" d="M603.02,635.28c-.32,.2-.59,.41-.84,.64-2.77-1.65-7.19-.33-7.31,4,.2,13.74-.5,28.26,4.93,41.15,1.49,2.45,4.9,3.48,7.41,2,5.27-3.61,5.18-14.6,5.77-20.52,.26-5.99,.76-32.32-9.96-27.27Z"/>
      <path class="cls-20" d="M379.52,539.69c-.6-1.77-2.51-2.93-4.35-2.92-1.76,.08-2.88,.72-3.6,1.68-2.44-.8-5.54,.38-6.21,3.18-1.36,9.85-1.38,19.93,.11,29.77,.43,2.96,1.02,5.9,1.78,8.79,.42,1.27,.43,2.77,1.39,3.78,1.85,2.71,6.27,2.34,7.84-.48,1.08-1.91,.5-4.21,.81-6.31,.27-4.23,.48-8.46,.74-12.69,.31-5.41,.82-10.8,1.35-16.2,0-2.7,1.1-6.11,.14-8.61Z"/>
      <path class="cls-20" d="M379.52,640.76c-.6-1.77-2.51-2.93-4.35-2.92-1.76,.08-2.88,.72-3.6,1.68-2.44-.8-5.54,.38-6.21,3.18-1.36,9.85-1.38,19.93,.11,29.77,.43,2.96,1.02,5.9,1.78,8.79,.42,1.27,.43,2.77,1.39,3.78,1.85,2.71,6.27,2.34,7.84-.48,1.08-1.91,.5-4.21,.81-6.31,.27-4.23,.48-8.46,.74-12.69,.31-5.41,.82-10.8,1.35-16.2,0-2.7,1.1-6.11,.14-8.61Z"/>
      <path class="cls-20" d="M507.42,649.97c.66-4.04,.17-8.18-.03-12.25-.52-6.83-1.93-13.84-5.72-19.65-.43-.67-.92-1.25-1.45-1.75-.18-.41-.34-.82-.54-1.23-2.52-6.17-11.81-11.72-16.44-4.59-.18,.35-.32,.71-.44,1.07-1.06,.01-2.16,.34-3.27,1.08-2.51,.77-4.35,3.15-5.21,5.6-.42,1.9-.54,3.87-.45,5.81,0,.1,.02,.2,.03,.3-.07,.37-.09,.76-.13,1.13-.37,.79-.71,1.58-1.03,2.39-9.12,22.53-3.56,47.31-2.54,70.78,.14,2,.29,4,.44,5.99-.33,5.66-.6,11.32-.78,16.99,.06,4.64-.73,9.55,.45,14.05,1.08,2.81,4.09,3.42,6.36,2.4,1.01,.64,2.28,.89,3.77,.51,.92-.22,1.65-.77,2.27-1.43,1.01,.14,2.04,.04,3.08-.38,2.3-.5,2.88-1.31,3.31-1.26,.1-.03,.2-.04,.3-.07,.54-.01,1.72-.11,2.31-.23,.74-.13,1.44-.39,2.13-.68,1.28,3.54,6.64,3.8,8.43,.52,1.23-2.91,.93-7.1,1.48-10.31,.36-3.48,.71-6.96,1.03-10.45,1.47-15.85,2.3-31.76,2.59-47.68,.09-5.32,.08-10.64-.21-15.95,.09-.24,.19-.47,.25-.72Z"/>
    </g>
    <g id="Layer_18_copy" data-name="Layer 18 copy">
      <path class="cls-1" d="M501.3,612.16c.03-.09,.08-.17,.1-.27,1.39-8.1-10.53-7.29-14.97-4.13-5.07,3.66-7.91,8.7-9.52,14.38-11.11,20.91-9.07,51.57-8.11,74.23,.71,15.28,1.05,30.58,1.62,45.86,.1,2.34,0,5.18,2.15,6.66,2.63,2.26,6.84,.59,7.63-2.64,1.62-10.98,1.31-22.15,1.67-33.22,.47-17.49,1.02-34.98,1.73-52.46,.29-7.48,.5-14.97,.81-22.45,.31-5.4,.47-9.08,1.33-12.47,2.26-3.89,4.87-6.43,7.58-7.16,.35-.13,.71-.21,1.07-.29,.13,0,.26-.01,.39-.01,1.07,.48,2.26,.69,3.41,.35,2.86-.68,4.04-3.92,3.12-6.38Z"/>
      <path class="cls-1" d="M506.56,536.65c-1.61-1.48-3.93-1.82-5.99-2.32-2.57-.49-5.2-.65-7.79-.17-7.47,1.21-13.06,7.7-15.55,14.53-2.01,6.49-1.78,13.84,.75,20.15,3.02,5.73,11.44,1.18,8.36-4.5-1.94-6.34-1.42-16.35,6.33-20.34,1.52-.54,3.35-1.31,8.4,.28,4.79,2.3,9.2-3.82,5.47-7.64Z"/>
      <path class="cls-1" d="M613.07,536.72c-1.27-1.34-3.18-1.48-4.91-1.7-3.25-.33-6.59,.83-8.95,3.08-3.22,3.1-3.91,7.7-4.44,11.94-.59,4.58-.79,9.21-.78,13.82,.22,6.83-.19,13.91,1.16,20.59,1.82,4.76,9.16,3.25,9.1-1.83-1.05-13.11-1.4-31.93,1.4-37.5,.1-.11,.2-.2,.28-.29,.13-.08,.25-.16,.39-.23,.14-.04,.3-.09,.47-.13,.11,0,.26,0,.43-.01,.18,.01,.32,.02,.44,.03,.89,.2,1.78,.51,2.69,.27,3.82-.25,5.47-5.46,2.73-8.03Z"/>
      <path class="cls-1" d="M615.97,637.23c-1.49-2.26-4.48-3.11-6.97-3.74-4.49-.88-9.59,.72-12.19,4.61-2.71,4.35-2.66,9.75-2.96,14.71-.12,7.88-.51,15.77-.28,23.65,.07,2.1,.17,4.2,.3,6.3,.03,1.58,.25,3.25,1.47,4.38,2.79,2.98,8.25,.74,8.12-3.36-.68-8.61-.41-17.25-.2-25.88,.18-7.25,.15-12.16,1.58-14.64,.15-.09,.29-.19,.44-.27,.28-.09,.57-.17,.87-.23,.11,0,.24,0,.4-.01,.15,0,.27,.01,.37,.02,.56,.11,1.11,.28,1.64,.48,.28,.13,.62,.31,.92,.49,1.09,.64,2.44,.82,3.66,.48,2.95-.74,4.4-4.39,2.84-6.98Z"/>
      <path class="cls-1" d="M378.57,536.8c-3.53-1.82-9.29,.83-11.7,3.63-3.67,4.23-3.1,10.3-3.34,15.55,0,5.55,.08,11.11-.16,16.66-.07,2.95-.25,5.91-.02,8.85,.15,1.19,.19,2.51,1.09,3.41,2.9,4.02,9.26,.98,8.41-3.67-.02-.18-.04-.36-.05-.55-.18-5.05,.26-10.09,.24-15.13,0-6.92-.18-16.18,.8-18.68,.1-.11,.25-.27,.45-.45,.16-.1,.36-.22,.58-.34,.26-.09,.66-.22,1.07-.31,.32-.07,.54-.11,.71-.15,.47-.04,.93-.14,1.36-.37,.59-.19,1.1-.52,1.53-.98,2.2-2.09,1.66-5.98-.96-7.47Z"/>
      <path class="cls-1" d="M380.04,639.33c-1.98-1.87-4.94-1.54-7.47-1.53-4.41,.1-9.23,2.5-10.08,7.18-.77,5.72-.84,11.52-.84,17.29-.01,6.8,.7,13.6,.28,20.4-.02,.21-.04,.42-.07,.64-.02,.12-.05,.26-.09,.44-.27,.8-.48,1.64-.26,2.47,.5,5.06,7.97,5.53,9.25,.63,1.53-6.46,.52-13.22,.49-19.8-.21-5.62-.06-16.04,.47-19.56,.17-.05,.35-.1,.54-.14,.5-.04,1.51-.12,2.06-.07,1.39-.04,2.89,.51,4.18-.24,3.1-1.05,3.87-5.51,1.53-7.71Z"/>
    </g>
    <g id="Layer_19_copy" data-name="Layer 19 copy">
      <circle class="cls-8" cx="492.33" cy="554.12" r="18.42"/>
      <rect class="cls-12" x="595.76" y="536.5" width="17.83" height="48.74"/>
      <rect class="cls-12" x="595.76" y="635.02" width="17.83" height="48.74"/>
      <rect class="cls-12" x="363.15" y="637.99" width="17.83" height="48.74"/>
      <rect class="cls-12" x="363.15" y="536.5" width="17.83" height="48.74"/>
      <path class="cls-12" d="M469.29,743.01l37.41,.68s.33-87.7,.33-116.09c-3.78-14.51-11.1-20.85-18.43-20.91-6.42,0-12.51,5.8-18.65,22.97l-.65,113.35Z"/>
    </g>
    <g id="Layer_13_copy" data-name="Layer 13 copy">
      <g id="Layer_6_copy" data-name="Layer 6 copy">
        <polygon class="cls-16" points="160.64 405.83 52.11 501.95 267.06 501.95 160.64 405.83"/>
        <polygon class="cls-16" points="824.29 405.83 715.76 501.95 930.71 501.95 824.29 405.83"/>
      </g>
      <g id="Layer_5_copy" data-name="Layer 5 copy">
        <rect class="cls-5" x="665.57" y="765.04" width="308.45" height="28.53"/>
        <rect class="cls-5" x="8.8" y="765.04" width="308.45" height="28.53"/>
        <rect class="cls-5" x="8.8" y="498.01" width="308.45" height="28.53"/>
        <rect class="cls-5" x="665.57" y="503.95" width="308.45" height="28.53"/>
      </g>
    </g>
    <polygon class="cls-4" points="489.94 285.09 306.28 453.89 670.03 453.89 489.94 285.09"/>
    <g id="Column_copy" data-name="Column copy">
      <g id="Layer_15_copy" data-name="Layer 15 copy">
        <rect class="cls-6" x="292.03" y="488.38" width="38.04" height="239.2"/>
      </g>
      <g>
        <path class="cls-18" d="M346.44,472.24c-6.48-5.94-28.84-3.48-37.94-3.28-6.63,.41-13.24,1.04-19.83,1.91-2.52,.34-5.35,.59-7.67,1.74-2.89-2.22-7.71,0-7.58,3.85,.67,6.06,.96,12.47,4.36,17.75,7.89,11.59,23.58,10.05,35.91,9.82,5.56-.22,11.13-.49,16.67-1.16,4.53-.39,9.16-1.73,12.22-5.29,3.77-4.16,5.37-9.78,5.88-15.27,.37-3.42,.58-7.43-2.02-10.07Z"/>
        <path class="cls-17" d="M335.87,490.85c-.13,.14-.27,.3-.45,.47-.21,.21-.41,.39-.57,.53-3.32,2.16-9.36,1.88-17.71,2.52-13.65,.65-25.47,.83-29.82-3.53-.48-.42-.9-.9-1.3-1.4-.11-.16-.23-.35-.36-.57-.3-.49-.54-1.01-.78-1.54,.14,.32,.09,.23-.02-.05-.09-.21-.19-.43-.28-.64,.13,.28,.22,.48,.28,.63-.11-.27-.27-.7-.4-1.12-.55-2.11-.78-3.2-.92-4.12,.67-.24,1.29-.65,1.93-1.01,4.06-1.03,2.55-.45,7.05-1.13,13.45-1.5,27.02-2.36,40.55-1.89,3.63,.39,2.97-.04,6.07,.95-.11,4-.07,2.95-.79,6.48-1.19,3.61-.39,2.21-2.48,5.4Z"/>
      </g>
      <g>
        <path class="cls-18" d="M275.05,741.29c6.2,6.24,28.65,4.82,37.74,5.04,6.64-.1,13.28-.42,19.89-.99,2.53-.22,5.37-.34,7.74-1.38,2.79,2.35,7.71,.36,7.75-3.49-.39-6.09-.38-12.5-3.53-17.94-7.34-11.95-23.08-11.14-35.41-11.48-5.57-.04-11.15-.03-16.7,.38-4.55,.18-9.23,1.3-12.46,4.71-3.96,3.98-5.82,9.52-6.58,14.98-.53,3.4-.92,7.4,1.55,10.16Z"/>
        <path class="cls-17" d="M286.47,723.19c.13-.13,.29-.28,.47-.45,.22-.2,.43-.37,.59-.51,3.41-2.01,9.44-1.44,17.81-1.69,13.67-.02,25.48,.36,29.63,4.91,.46,.44,.86,.94,1.24,1.45,.1,.16,.21,.36,.33,.59,.27,.51,.5,1.04,.7,1.57-.12-.33-.08-.23,.02,.06,.08,.22,.17,.43,.25,.65-.11-.29-.19-.49-.25-.64,.1,.27,.24,.71,.35,1.14,.45,2.14,.63,3.23,.72,4.16-.68,.21-1.32,.59-1.97,.92-4.1,.84-2.57,.33-7.1,.8-13.5,.87-27.1,1.1-40.59,0-3.61-.56-2.97-.1-6.02-1.24,.29-3.99,.21-2.95,1.09-6.44,1.36-3.55,.49-2.19,2.73-5.28Z"/>
      </g>
      <rect class="cls-6" x="414.06" y="489.05" width="38.04" height="239.2"/>
      <g>
        <path class="cls-18" d="M468.47,472.91c-6.48-5.94-28.84-3.48-37.94-3.28-6.63,.41-13.24,1.04-19.83,1.91-2.52,.34-5.35,.59-7.67,1.74-2.89-2.22-7.71,0-7.58,3.85,.67,6.06,.96,12.47,4.36,17.75,7.89,11.59,23.58,10.05,35.91,9.82,5.56-.22,11.13-.49,16.67-1.16,4.53-.39,9.16-1.73,12.22-5.29,3.77-4.16,5.37-9.78,5.88-15.27,.37-3.42,.58-7.43-2.02-10.07Z"/>
        <path class="cls-17" d="M457.9,491.52c-.13,.14-.27,.3-.45,.47-.21,.21-.41,.39-.57,.53-3.32,2.16-9.36,1.88-17.71,2.52-13.65,.65-25.47,.83-29.82-3.53-.48-.42-.9-.9-1.3-1.4-.11-.16-.23-.35-.36-.57-.3-.49-.54-1.01-.78-1.54,.14,.32,.09,.23-.02-.05-.09-.21-.19-.43-.28-.64,.13,.28,.22,.48,.28,.63-.11-.27-.27-.7-.4-1.12-.55-2.11-.78-3.2-.92-4.12,.67-.24,1.29-.65,1.93-1.01,4.06-1.03,2.55-.45,7.05-1.13,13.45-1.5,27.02-2.36,40.55-1.89,3.63,.39,2.97-.04,6.07,.95-.11,4-.07,2.95-.79,6.48-1.19,3.61-.39,2.21-2.48,5.4Z"/>
      </g>
      <g>
        <path class="cls-18" d="M397.08,741.96c6.2,6.24,28.65,4.82,37.74,5.04,6.64-.1,13.28-.42,19.89-.99,2.53-.22,5.37-.34,7.74-1.38,2.79,2.35,7.71,.36,7.75-3.49-.39-6.09-.38-12.5-3.53-17.94-7.34-11.95-23.08-11.14-35.41-11.48-5.57-.04-11.15-.03-16.7,.38-4.55,.18-9.23,1.3-12.46,4.71-3.96,3.98-5.82,9.52-6.58,14.98-.53,3.4-.92,7.4,1.55,10.16Z"/>
        <path class="cls-17" d="M408.5,723.86c.13-.13,.29-.28,.47-.45,.22-.2,.43-.37,.59-.51,3.41-2.01,9.44-1.44,17.81-1.69,13.67-.02,25.48,.36,29.63,4.91,.46,.44,.86,.94,1.24,1.45,.1,.16,.21,.36,.33,.59,.27,.51,.5,1.04,.7,1.57-.12-.33-.08-.23,.02,.06,.08,.22,.17,.43,.25,.65-.11-.29-.19-.49-.25-.64,.1,.27,.24,.71,.35,1.14,.45,2.14,.63,3.23,.72,4.16-.68,.21-1.32,.59-1.97,.92-4.1,.84-2.57,.33-7.1,.8-13.5,.87-27.1,1.1-40.59,0-3.61-.56-2.97-.1-6.02-1.24,.29-3.99,.21-2.95,1.09-6.44,1.36-3.55,.49-2.19,2.73-5.28Z"/>
      </g>
      <rect class="cls-6" x="529.37" y="489.05" width="38.04" height="239.2"/>
      <g>
        <path class="cls-18" d="M583.77,472.91c-6.48-5.94-28.84-3.48-37.94-3.28-6.63,.41-13.24,1.04-19.83,1.91-2.52,.34-5.35,.59-7.67,1.74-2.89-2.22-7.71,0-7.58,3.85,.67,6.06,.96,12.47,4.36,17.75,7.89,11.59,23.58,10.05,35.91,9.82,5.56-.22,11.13-.49,16.67-1.16,4.53-.39,9.16-1.73,12.22-5.29,3.77-4.16,5.37-9.78,5.88-15.27,.37-3.42,.58-7.43-2.02-10.07Z"/>
        <path class="cls-17" d="M573.2,491.52c-.13,.14-.27,.3-.45,.47-.21,.21-.41,.39-.57,.53-3.32,2.16-9.36,1.88-17.71,2.52-13.65,.65-25.47,.83-29.82-3.53-.48-.42-.9-.9-1.3-1.4-.11-.16-.23-.35-.36-.57-.3-.49-.54-1.01-.78-1.54,.14,.32,.09,.23-.02-.05-.09-.21-.19-.43-.28-.64,.13,.28,.22,.48,.28,.63-.11-.27-.27-.7-.4-1.12-.55-2.11-.78-3.2-.92-4.12,.67-.24,1.29-.65,1.93-1.01,4.06-1.03,2.55-.45,7.05-1.13,13.45-1.5,27.02-2.36,40.55-1.89,3.63,.39,2.97-.04,6.07,.95-.11,4-.07,2.95-.79,6.48-1.19,3.61-.39,2.21-2.48,5.4Z"/>
      </g>
      <g>
        <path class="cls-18" d="M512.38,741.96c6.2,6.24,28.65,4.82,37.74,5.04,6.64-.1,13.28-.42,19.89-.99,2.53-.22,5.37-.34,7.74-1.38,2.79,2.35,7.71,.36,7.75-3.49-.39-6.09-.38-12.5-3.53-17.94-7.34-11.95-23.08-11.14-35.41-11.48-5.57-.04-11.15-.03-16.7,.38-4.55,.18-9.23,1.3-12.46,4.71-3.96,3.98-5.82,9.52-6.58,14.98-.53,3.4-.92,7.4,1.55,10.16Z"/>
        <path class="cls-17" d="M523.81,723.86c.13-.13,.29-.28,.47-.45,.22-.2,.43-.37,.59-.51,3.41-2.01,9.44-1.44,17.81-1.69,13.67-.02,25.48,.36,29.63,4.91,.46,.44,.86,.94,1.24,1.45,.1,.16,.21,.36,.33,.59,.27,.51,.5,1.04,.7,1.57-.12-.33-.08-.23,.02,.06,.08,.22,.17,.43,.25,.65-.11-.29-.19-.49-.25-.64,.1,.27,.24,.71,.35,1.14,.45,2.14,.63,3.23,.72,4.16-.68,.21-1.32,.59-1.97,.92-4.1,.84-2.57,.33-7.1,.8-13.5,.87-27.1,1.1-40.59,0-3.61-.56-2.97-.1-6.02-1.24,.29-3.99,.21-2.95,1.09-6.44,1.36-3.55,.49-2.19,2.73-5.28Z"/>
      </g>
      <rect class="cls-6" x="645.35" y="489.05" width="38.04" height="239.2"/>
      <g>
        <path class="cls-18" d="M699.75,472.91c-6.48-5.94-28.84-3.48-37.94-3.28-6.63,.41-13.24,1.04-19.83,1.91-2.52,.34-5.35,.59-7.67,1.74-2.89-2.22-7.71,0-7.58,3.85,.67,6.06,.96,12.47,4.36,17.75,7.89,11.59,23.58,10.05,35.91,9.82,5.56-.22,11.13-.49,16.67-1.16,4.53-.39,9.16-1.73,12.22-5.29,3.77-4.16,5.37-9.78,5.88-15.27,.37-3.42,.58-7.43-2.02-10.07Z"/>
        <path class="cls-17" d="M689.18,491.52c-.13,.14-.27,.3-.45,.47-.21,.21-.41,.39-.57,.53-3.32,2.16-9.36,1.88-17.71,2.52-13.65,.65-25.47,.83-29.82-3.53-.48-.42-.9-.9-1.3-1.4-.11-.16-.23-.35-.36-.57-.3-.49-.54-1.01-.78-1.54,.14,.32,.09,.23-.02-.05-.09-.21-.19-.43-.28-.64,.13,.28,.22,.48,.28,.63-.11-.27-.27-.7-.4-1.12-.55-2.11-.78-3.2-.92-4.12,.67-.24,1.29-.65,1.93-1.01,4.06-1.03,2.55-.45,7.05-1.13,13.45-1.5,27.02-2.36,40.55-1.89,3.63,.39,2.97-.04,6.07,.95-.11,4-.07,2.95-.79,6.48-1.19,3.61-.39,2.21-2.48,5.4Z"/>
      </g>
      <g>
        <path class="cls-18" d="M628.36,741.96c6.2,6.24,28.65,4.82,37.74,5.04,6.64-.1,13.28-.42,19.89-.99,2.53-.22,5.37-.34,7.74-1.38,2.79,2.35,7.71,.36,7.75-3.49-.39-6.09-.38-12.5-3.53-17.94-7.34-11.95-23.08-11.14-35.41-11.48-5.57-.04-11.15-.03-16.7,.38-4.55,.18-9.23,1.3-12.46,4.71-3.96,3.98-5.82,9.52-6.58,14.98-.53,3.4-.92,7.4,1.55,10.16Z"/>
        <path class="cls-17" d="M639.79,723.86c.13-.13,.29-.28,.47-.45,.22-.2,.43-.37,.59-.51,3.41-2.01,9.44-1.44,17.81-1.69,13.67-.02,25.48,.36,29.63,4.91,.46,.44,.86,.94,1.24,1.45,.1,.16,.21,.36,.33,.59,.27,.51,.5,1.04,.7,1.57-.12-.33-.08-.23,.02,.06,.08,.22,.17,.43,.25,.65-.11-.29-.19-.49-.25-.64,.1,.27,.24,.71,.35,1.14,.45,2.14,.63,3.23,.72,4.16-.68,.21-1.32,.59-1.97,.92-4.1,.84-2.57,.33-7.1,.8-13.5,.87-27.1,1.1-40.59,0-3.61-.56-2.97-.1-6.02-1.24,.29-3.99,.21-2.95,1.09-6.44,1.36-3.55,.49-2.19,2.73-5.28Z"/>
      </g>
    </g>
    <g id="Layer_12_copy" data-name="Layer 12 copy">
      <path class="cls-5" d="M268.25,477.89v-24s162.05-5.35,216.06-5.35,223.75,5.35,223.75,5.35v24s-168.13-5.33-224.18-5.33-215.64,5.33-215.64,5.33Z"/>
      <path class="cls-11" d="M712.64,733.54v27.22s-164.58,6.07-219.43,6.07-227.24-6.07-227.24-6.07v-27.22s170.76,6.05,227.68,6.05,219-6.05,219-6.05Z"/>
      <path class="cls-14" d="M730.65,757.31v27.22s-178.69,6.07-238.25,6.07-246.73-6.07-246.73-6.07v-27.22s185.4,6.05,247.2,6.05,237.78-6.05,237.78-6.05Z"/>
      <path class="cls-3" d="M750.22,785.84v27.22s-192.27,6.07-256.36,6.07-265.48-6.07-265.48-6.07v-27.22s199.49,6.05,265.99,6.05,255.85-6.05,255.85-6.05Z"/>
    </g>
    <g id="Flag_copy" data-name="Flag copy">
      <path class="cls-10" d="M488.16,219.7l.67,65.4-.67-65.4Z"/>
      <polygon class="cls-7" points="432.92 243.8 488.83 223.05 487.15 266.57 432.92 243.8"/>
    </g>
  </g>
  <g id="Stars_copy" data-name="Stars copy">
    <path class="cls-19" d="M909.13,376.42s3.02,24.75,17.92,30.4c-14.45,3.86-16.89,28.42-16.89,28.42,0,0-2.62-22.67-17.31-28,14.3-6.93,16.28-30.81,16.28-30.81Z"/>
    <path class="cls-19" d="M347.03,300.55s4.23,27.01,25.08,33.18c-20.22,4.21-23.64,31.01-23.64,31.01,0,0-3.66-24.74-24.22-30.56,20.01-7.57,22.79-33.63,22.79-33.63Z"/>
    <path class="cls-19" d="M843.98,781.79s4.36,30.63,25.83,37.62c-20.83,4.77-24.35,35.17-24.35,35.17,0,0-3.77-28.06-24.95-34.66,20.61-8.58,23.47-38.14,23.47-38.14Z"/>
    <path class="cls-19" d="M601.67,219.7s5.68,35.04,33.63,43.03c-27.12,5.46-31.7,40.23-31.7,40.23,0,0-4.92-32.09-32.49-39.65,26.83-9.82,30.56-43.62,30.56-43.62Z"/>
    <path class="cls-19" d="M168.26,789.63s5.1,24.04,30.23,29.52c-24.38,3.75-28.5,27.6-28.5,27.6,0,0-4.42-22.02-29.2-27.2,24.12-6.73,27.47-29.92,27.47-29.92Z"/>
    <path class="cls-19" d="M213.12,205.66s2.84,19.01,16.82,23.35c-13.56,2.96-15.85,21.82-15.85,21.82,0,0-2.46-17.41-16.24-21.51,13.42-5.33,15.28-23.66,15.28-23.66Z"/>
  </g>
</svg>